<svg width="1200" height="104" viewBox="0 0 1200 104" fill="none" xmlns="http://www.w3.org/2000/svg">
<g clip-path="url(#clip0_1_108)">
<path d="M59.6337 31V31.1856L58.8629 31.3711V39.5933L59.6337 39.7788V39.9644H55.9795V39.7788L56.7503 39.5933V32.5845L53.7241 40.0929H53.3387L49.4132 32.5845V39.3934L50.4409 39.7788V39.9644H48V39.7788L49.0278 39.3934V31.3711L48.2569 31.1856V31H49.8557C50.0983 31 50.3125 31.0285 50.4838 31.0856C50.6551 31.1427 50.8264 31.2141 50.9548 31.314C51.0976 31.414 51.2118 31.5282 51.3117 31.6566C51.4116 31.7851 51.4973 31.9421 51.5829 32.0991L54.3807 37.4521L56.5219 32.0991C56.5933 31.9136 56.6647 31.7566 56.7646 31.6281C56.8502 31.4996 56.9644 31.3854 57.0929 31.2855C57.2213 31.1856 57.3784 31.1142 57.564 31.0714C57.7495 31.0285 57.9779 31 58.2634 31H59.6337Z" fill="#292F36"/>
<path d="M64.2015 33.3839C64.7297 33.3839 65.215 33.4553 65.629 33.6123C66.043 33.7693 66.3998 33.9977 66.6996 34.2832C66.9994 34.583 67.2135 34.9398 67.3705 35.3538C67.5275 35.7678 67.5989 36.2531 67.5989 36.7813C67.5989 37.3094 67.5275 37.7947 67.3705 38.2087C67.2135 38.6227 66.9851 38.9795 66.6996 39.2793C66.3998 39.5791 66.043 39.7932 65.629 39.9502C65.215 40.1072 64.7297 40.1786 64.2015 40.1786C63.6734 40.1786 63.1881 40.1072 62.7741 39.9502C62.3601 39.7932 62.0033 39.5648 61.7035 39.2793C61.4037 38.9795 61.1896 38.6227 61.0326 38.2087C60.8756 37.7947 60.8042 37.3094 60.8042 36.7813C60.8042 36.2531 60.8756 35.7678 61.0326 35.3538C61.1896 34.9398 61.418 34.583 61.7035 34.2832C62.0033 33.9834 62.3601 33.7693 62.7741 33.6123C63.1881 33.4553 63.6591 33.3839 64.2015 33.3839ZM64.2015 39.9359C64.3443 39.9359 64.487 39.8931 64.6441 39.7932C64.7868 39.6933 64.9153 39.5362 65.0294 39.2936C65.1436 39.0509 65.2436 38.7369 65.315 38.3372C65.3863 37.9232 65.4291 37.4093 65.4291 36.7955C65.4291 36.1674 65.3863 35.6536 65.315 35.2539C65.2436 34.8542 65.1436 34.5259 65.0294 34.2975C64.9153 34.0691 64.7868 33.8978 64.6441 33.7979C64.5013 33.698 64.3586 33.6551 64.2015 33.6551C64.0588 33.6551 63.9161 33.698 63.759 33.7979C63.6163 33.8978 63.4878 34.0548 63.3736 34.2975C63.2594 34.5402 63.1595 34.8542 63.0881 35.2539C63.0168 35.6678 62.9739 36.1817 62.9739 36.7955C62.9739 37.4236 63.0168 37.9375 63.0881 38.3372C63.1595 38.7369 63.2594 39.0652 63.3736 39.2936C63.4878 39.522 63.6163 39.6933 63.759 39.7932C63.9018 39.8788 64.0445 39.9359 64.2015 39.9359Z" fill="#292F36"/>
<path d="M73.8369 31C74.6078 31 74.9932 31.3854 74.9932 32.1562V39.6075L75.764 39.7931V39.9787H74.6078C74.2937 39.9787 74.051 39.9359 73.8655 39.8359C73.6799 39.736 73.5229 39.6218 73.423 39.5076C73.2945 39.3649 73.1946 39.1936 73.1375 39.0223C73.0233 39.2507 72.8805 39.4362 72.7092 39.6075C72.5665 39.7503 72.3666 39.8788 72.124 40.0072C71.8813 40.1357 71.5958 40.1928 71.2675 40.1928C70.8964 40.1928 70.5538 40.1214 70.2397 39.9787C69.9114 39.8359 69.6402 39.6218 69.4118 39.3363C69.1834 39.0508 68.9836 38.694 68.8551 38.28C68.7124 37.8518 68.6553 37.3664 68.6553 36.7955C68.6553 36.2245 68.7267 35.7392 68.8551 35.3109C68.9979 34.8827 69.1834 34.5401 69.4404 34.2546C69.683 33.9691 69.9828 33.755 70.3254 33.6122C70.668 33.4695 71.0534 33.3981 71.4816 33.3981C71.71 33.3981 71.9099 33.4267 72.0954 33.4695C72.281 33.5266 72.438 33.5837 72.5665 33.6551C72.7235 33.7264 72.852 33.8121 72.9662 33.912V31.414L72.1954 31.2284V31.0428H73.8369V31ZM72.9376 34.2831C72.8377 34.1832 72.7521 34.0976 72.6379 34.0262C72.538 33.9548 72.438 33.8977 72.3238 33.8406C72.2096 33.7835 72.0954 33.7693 71.967 33.7693C71.81 33.7693 71.6529 33.8121 71.5102 33.8977C71.3674 33.9834 71.2532 34.1261 71.139 34.3402C71.0391 34.5544 70.9535 34.8684 70.8964 35.2538C70.8393 35.6535 70.8107 36.1531 70.8107 36.7812C70.8107 37.395 70.8393 37.8803 70.8964 38.2657C70.9535 38.6511 71.0249 38.9509 71.1248 39.165C71.2104 39.3791 71.3104 39.5362 71.4388 39.6075C71.553 39.6789 71.6672 39.7217 71.7814 39.7217C71.9812 39.7217 72.1525 39.6646 72.2953 39.5647C72.438 39.4648 72.5522 39.3363 72.6521 39.2079C72.7663 39.0508 72.8663 38.8795 72.9519 38.694V34.2831H72.9376Z" fill="#292F36"/>
<path d="M80.0605 40.1929C78.9614 40.1929 78.1049 39.8931 77.5054 39.2936C76.8916 38.694 76.5918 37.8519 76.5918 36.7955C76.5918 36.2674 76.6632 35.782 76.8202 35.3681C76.9772 34.9541 77.1913 34.5973 77.4626 34.2975C77.7338 33.9977 78.0621 33.7836 78.4618 33.6266C78.8472 33.4696 79.2754 33.3982 79.7465 33.3982C80.2318 33.3982 80.6601 33.4696 81.0312 33.598C81.4166 33.7408 81.7306 33.9264 82.0019 34.1547C82.2731 34.3831 82.4729 34.6544 82.6157 34.9684C82.7584 35.2824 82.8298 35.6108 82.8298 35.9676C82.8298 36.0818 82.8298 36.196 82.8155 36.2817C82.8012 36.3673 82.787 36.4529 82.7727 36.5243C82.7441 36.61 82.7298 36.6813 82.7013 36.7384C82.3302 36.8098 81.9305 36.8812 81.5022 36.924C81.1454 36.9811 80.7314 37.0239 80.2604 37.0525C79.7893 37.081 79.304 37.1096 78.7901 37.1096C78.7901 37.6377 78.8329 38.0802 78.9043 38.4371C78.9756 38.794 79.0898 39.0795 79.2183 39.2793C79.3611 39.4934 79.5181 39.6362 79.7036 39.7218C79.8892 39.8075 80.1034 39.8503 80.3175 39.8503C80.5744 39.8503 80.8171 39.8075 81.0454 39.7075C81.2738 39.6076 81.4737 39.4934 81.6307 39.3364C81.802 39.1794 81.9305 38.9938 82.0304 38.794C82.1303 38.5941 82.1731 38.3943 82.1731 38.1802H82.4872C82.4872 38.4371 82.4301 38.6798 82.3159 38.9224C82.2017 39.1651 82.0304 39.3792 81.8163 39.5648C81.6022 39.7504 81.3452 39.8931 81.0454 40.0073C80.76 40.1358 80.4316 40.1929 80.0605 40.1929ZM78.7758 36.7813C79.0613 36.7813 79.3182 36.7813 79.5466 36.767C79.775 36.7527 79.9606 36.7384 80.1176 36.7242C80.3032 36.7099 80.4459 36.6813 80.5744 36.6671C80.5887 36.5814 80.6172 36.4815 80.6315 36.3816C80.6458 36.2817 80.6601 36.1817 80.6743 36.0675C80.6886 35.9533 80.6886 35.8249 80.6886 35.6964C80.6886 35.311 80.66 34.9827 80.6029 34.7257C80.5458 34.4688 80.4745 34.2547 80.3745 34.0834C80.2889 33.9264 80.189 33.7979 80.0605 33.7408C79.932 33.6837 79.8321 33.6409 79.7179 33.6409C79.6037 33.6409 79.4895 33.6837 79.3753 33.7693C79.2612 33.855 79.1612 34.012 79.0613 34.2261C78.9757 34.4545 78.89 34.7686 78.8329 35.1825C78.7758 35.5965 78.7758 36.1246 78.7758 36.7813Z" fill="#292F36"/>
<path d="M88.2255 33.8264C87.9686 33.8264 87.7402 33.8835 87.5403 33.9834C87.3405 34.0833 87.1692 34.2118 87.0264 34.3402C86.8694 34.4973 86.7409 34.6686 86.6125 34.8541V39.6076L87.3833 39.7931V39.9787H83.7861V39.7931L84.557 39.6076V33.9548L83.7861 33.7693V33.5837H84.9424C85.2421 33.5837 85.4848 33.6408 85.6846 33.7407C85.8702 33.8406 86.0272 33.9548 86.1414 34.069C86.2699 34.2118 86.3698 34.3688 86.4269 34.5401C86.5554 34.3545 86.7124 34.1832 86.898 34.0262C87.055 33.8977 87.2549 33.7835 87.4975 33.6693C87.7402 33.5551 88.0114 33.5123 88.3397 33.5123C88.7965 33.5123 89.1391 33.6265 89.3675 33.8264C89.5959 34.0405 89.6958 34.3402 89.6958 34.7257C89.6958 35.0112 89.6101 35.2538 89.4388 35.4251C89.2675 35.5964 89.0249 35.6821 88.7394 35.6821C88.668 35.6821 88.6109 35.6821 88.5395 35.6821C88.4682 35.6821 88.4254 35.6678 88.3825 35.6678C88.3254 35.6535 88.2683 35.6535 88.2255 35.625V33.8264Z" fill="#292F36"/>
<path d="M95.2201 35.4965C95.2201 35.211 95.1915 34.9541 95.1344 34.74C95.0773 34.5259 95.006 34.3546 94.9061 34.2261C94.8204 34.0834 94.7205 33.9834 94.592 33.9263C94.4778 33.8692 94.3636 33.8264 94.2494 33.8264C94.0496 33.8264 93.8783 33.8835 93.7355 33.9834C93.5928 34.0834 93.4643 34.2118 93.3787 34.3403C93.2645 34.4973 93.1788 34.6686 93.0932 34.8542V39.6076L93.864 39.7932V39.9787H90.2668V39.7932L91.0376 39.6076V33.9549L90.2668 33.7693V33.5837H91.4231C91.7228 33.5837 91.9655 33.6408 92.1653 33.7408C92.3509 33.8407 92.5079 33.9549 92.6221 34.0691C92.7506 34.2118 92.8505 34.3688 92.9076 34.5401C93.0218 34.326 93.1646 34.1262 93.3359 33.9549C93.4786 33.8121 93.6784 33.6837 93.9068 33.5552C94.1352 33.4267 94.435 33.3696 94.7776 33.3696C95.1487 33.3696 95.4913 33.4267 95.7911 33.5552C96.1051 33.6694 96.362 33.8407 96.5762 34.0263C96.7903 34.2261 96.9616 34.4402 97.0901 34.6972C97.2185 34.9541 97.2756 35.211 97.2756 35.4823V39.5933L98.0464 39.7789V39.9645H96.3763C95.6055 39.9645 95.2201 39.579 95.2201 38.8082V35.4965Z" fill="#292F36"/>
<path d="M49.356 49.0002V48.472H59.2767V49.0002L57.1927 49.5284V60.3056H64.6725V49.5284L62.5884 49.0002V48.472H72.5093V49.0002L70.4251 49.5284V71.7966L72.5093 72.3248V72.853H62.5884V72.3105L64.6725 71.7824V61.1764H57.1927V71.7824L59.2767 72.3105V72.8387H49.356V72.3105L51.44 71.7824V49.5141L49.356 49.0002Z" fill="#292F36"/>
<path d="M84.8424 54.9099C86.2842 54.9099 87.5689 55.124 88.7108 55.5379C89.8528 55.9519 90.8092 56.5657 91.6085 57.3651C92.4079 58.1644 93.0217 59.1351 93.4357 60.2771C93.8496 61.419 94.0638 62.7037 94.0638 64.1455C94.0638 65.5872 93.8496 66.8719 93.4357 68.0139C93.0217 69.1558 92.4079 70.1122 91.6085 70.9116C90.8092 71.711 89.8385 72.3248 88.7108 72.7387C87.5689 73.1527 86.2842 73.3668 84.8424 73.3668C83.4007 73.3668 82.116 73.1527 80.974 72.7387C79.8321 72.3248 78.8757 71.711 78.0763 70.9116C77.2769 70.1122 76.6631 69.1416 76.2492 68.0139C75.8352 66.8719 75.6211 65.5872 75.6211 64.1455C75.6211 62.7037 75.8352 61.419 76.2492 60.2771C76.6631 59.1351 77.2769 58.1787 78.0763 57.3651C78.8757 56.5514 79.8464 55.9519 80.974 55.5379C82.116 55.124 83.4007 54.9099 84.8424 54.9099ZM84.8424 72.6531C85.2421 72.6531 85.6276 72.5246 86.0272 72.2677C86.4269 72.0107 86.7695 71.5682 87.0835 70.9259C87.3976 70.2835 87.6545 69.4128 87.8544 68.3136C88.0542 67.2145 88.1541 65.8156 88.1541 64.1169C88.1541 62.4183 88.0542 61.0193 87.8544 59.9202C87.6545 58.8211 87.3976 57.9503 87.0835 57.308C86.7695 56.6656 86.4127 56.2231 86.0272 55.9662C85.6418 55.7092 85.2421 55.5808 84.8424 55.5808C84.4427 55.5808 84.0574 55.7092 83.6577 55.9662C83.258 56.2231 82.9154 56.6656 82.6013 57.308C82.2873 57.9503 82.0304 58.8211 81.8305 59.9202C81.6307 61.0193 81.5307 62.4183 81.5307 64.1169C81.5307 65.8156 81.6307 67.2145 81.8305 68.3136C82.0304 69.4128 82.2873 70.2835 82.6013 70.9259C82.9154 71.5682 83.2723 72.0107 83.6577 72.2677C84.0574 72.5246 84.4427 72.6531 84.8424 72.6531Z" fill="#292F36"/>
<path d="M120.144 60.6482C120.144 59.8203 120.072 59.1065 119.93 58.5498C119.787 57.9931 119.615 57.5221 119.387 57.1652C119.159 56.8084 118.916 56.5514 118.659 56.3801C118.388 56.2231 118.131 56.1374 117.874 56.1374C117.431 56.1374 117.046 56.2802 116.703 56.5657C116.361 56.8512 116.075 57.1795 115.818 57.5221C115.547 57.936 115.29 58.4071 115.09 58.9067V71.7823L117.189 72.3105V72.8387H107.454V72.3105L109.538 71.7823V60.6482C109.538 59.8203 109.466 59.1065 109.324 58.5498C109.181 57.9931 109.009 57.5221 108.781 57.1652C108.553 56.8084 108.31 56.5514 108.053 56.3801C107.782 56.2231 107.525 56.1374 107.268 56.1374C106.825 56.1374 106.44 56.2802 106.098 56.5657C105.755 56.8512 105.469 57.1795 105.212 57.5221C104.927 57.936 104.684 58.4071 104.484 58.9067V71.7823L106.569 72.3105V72.8387H96.8333V72.3105L98.9174 71.7823V56.48L96.8333 55.9519V55.4237H99.9594C100.773 55.4237 101.444 55.5665 101.958 55.8377C102.486 56.1089 102.886 56.4229 103.2 56.737C103.542 57.1367 103.799 57.5649 103.971 58.0217C104.27 57.4364 104.641 56.9225 105.084 56.4515C105.484 56.0518 105.969 55.6949 106.54 55.3666C107.125 55.0383 107.825 54.8813 108.667 54.8813C110.052 54.8813 111.265 55.1953 112.264 55.8091C113.278 56.4229 114.048 57.2223 114.577 58.193C114.876 57.5934 115.247 57.051 115.69 56.5514C116.09 56.1374 116.575 55.752 117.146 55.4094C117.731 55.0669 118.431 54.8813 119.273 54.8813C120.229 54.8813 121.086 55.0383 121.885 55.3381C122.67 55.6378 123.355 56.0518 123.926 56.58C124.497 57.1081 124.94 57.7076 125.254 58.4071C125.568 59.1066 125.725 59.8488 125.725 60.6339V71.7681L127.809 72.2962V72.8244H123.284C121.2 72.8244 120.158 71.7823 120.158 69.6983V60.6482H120.144Z" fill="#292F36"/>
<path d="M139.286 73.3525C136.317 73.3525 134.004 72.5389 132.363 70.8973C130.721 69.2557 129.893 67.0146 129.893 64.1312C129.893 62.6895 130.107 61.4048 130.521 60.2628C130.935 59.1208 131.52 58.1644 132.263 57.3508C133.005 56.5514 133.904 55.9376 134.961 55.5236C136.017 55.1097 137.173 54.8956 138.415 54.8956C139.714 54.8956 140.885 55.0811 141.912 55.4523C142.94 55.8234 143.825 56.323 144.539 56.9511C145.253 57.5792 145.809 58.3215 146.195 59.1637C146.58 60.0058 146.766 60.9051 146.766 61.8615C146.766 62.1899 146.751 62.4753 146.709 62.718C146.666 62.9607 146.637 63.1748 146.58 63.3604C146.509 63.5888 146.451 63.7886 146.409 63.9456C145.381 64.1597 144.31 64.331 143.168 64.4738C142.198 64.6165 141.07 64.7307 139.8 64.8449C138.529 64.9448 137.187 65.0019 135.803 65.0019C135.803 66.4437 135.903 67.6427 136.117 68.5991C136.331 69.5555 136.616 70.3263 136.988 70.8973C137.359 71.4683 137.801 71.868 138.315 72.1107C138.829 72.3533 139.386 72.4818 139.985 72.4818C140.685 72.4818 141.341 72.3533 141.955 72.0964C142.569 71.8394 143.097 71.4969 143.554 71.0686C144.011 70.6404 144.368 70.155 144.639 69.6126C144.91 69.0702 145.038 68.5135 145.038 67.9568H145.909C145.909 68.6562 145.752 69.3271 145.438 69.9695C145.124 70.6261 144.681 71.1971 144.096 71.6967C143.511 72.1963 142.826 72.596 142.012 72.8958C141.184 73.1955 140.271 73.3525 139.286 73.3525ZM135.803 64.1312C136.588 64.1312 137.287 64.1169 137.887 64.0741C138.486 64.0313 139 64.0027 139.414 63.9599C139.899 63.9171 140.314 63.86 140.67 63.7886C140.713 63.5602 140.77 63.3033 140.842 63.0178C140.884 62.7608 140.927 62.4753 140.956 62.1613C140.984 61.8473 141.013 61.5189 141.013 61.1764C141.013 60.1343 140.927 59.2636 140.77 58.5498C140.613 57.8361 140.399 57.2651 140.157 56.8226C139.914 56.3801 139.628 56.0661 139.329 55.8805C139.014 55.6949 138.7 55.595 138.401 55.595C138.101 55.595 137.787 55.7092 137.473 55.9233C137.159 56.1517 136.888 56.5657 136.645 57.1795C136.402 57.7933 136.202 58.664 136.031 59.7775C135.888 60.8909 135.803 62.3469 135.803 64.1312Z" fill="#292F36"/>
<path d="M163.852 72.4818V58.3643L151.376 48.4863V72.4818H163.852Z" fill="#292F36"/>
<path d="M179.283 72.4818V58.3643L167.007 48.4863V72.4818H179.283Z" fill="#292F36"/>
</g>
<g clip-path="url(#clip1_1_108)">
<path d="M356.16 102.606C384.021 102.606 406.606 80.0206 406.606 52.16C406.606 24.2993 384.021 1.71375 356.16 1.71375C328.299 1.71375 305.714 24.2993 305.714 52.16C305.714 80.0206 328.299 102.606 356.16 102.606Z" fill="white"/>
<path d="M356.16 103.32C327.954 103.32 305 80.3664 305 52.1599C305 23.9535 327.954 1 356.16 1C384.366 1 407.32 23.9535 407.32 52.1599C407.32 80.3664 384.366 103.32 356.16 103.32ZM356.16 2.42745C328.739 2.42745 306.427 24.7386 306.427 52.1599C306.427 79.5813 328.739 101.892 356.16 101.892C383.581 101.892 405.892 79.5813 405.892 52.1599C405.892 24.7386 383.581 2.42745 356.16 2.42745Z" fill="#292F36"/>
<path d="M363.354 6.83827C363.697 6.86682 363.997 6.88109 364.239 6.88109L364.211 7.10949C363.811 7.16658 363.469 7.46635 363.197 8.03733L359.8 14.832L359.7 14.8177L359.614 14.8035L357.459 7.22368C357.316 6.72407 357.074 6.45286 356.731 6.41003L356.76 6.18164C357.074 6.23874 357.488 6.28156 358.001 6.33866C358.672 6.39576 359.172 6.43858 359.5 6.43858L359.472 6.66697C359.172 6.6527 358.958 6.66697 358.829 6.7098C358.701 6.75262 358.63 6.86682 358.615 7.00956C358.601 7.13803 358.63 7.3236 358.701 7.56627L360.285 13.3617L362.641 8.62259C362.841 8.23717 362.94 7.92313 362.969 7.69474C362.998 7.45207 362.926 7.26651 362.769 7.13803C362.612 7.00956 362.355 6.93819 362.013 6.89537L362.041 6.66697C362.455 6.73835 362.898 6.79545 363.354 6.83827Z" fill="#292F36"/>
<path d="M372.947 9.85022C372.804 9.85022 372.69 9.90731 372.604 10.0215C372.518 10.1357 372.418 10.3213 372.319 10.5925L370.277 16.0168C370.177 16.288 370.12 16.5021 370.12 16.6449C370.12 16.7876 370.163 16.9018 370.263 16.9874C370.363 17.0731 370.548 17.173 370.805 17.2872L370.72 17.5013C370.391 17.3586 369.935 17.173 369.349 16.9446C368.721 16.702 368.25 16.5449 367.936 16.445L368.022 16.2309C368.293 16.3165 368.493 16.3594 368.621 16.3594C368.75 16.3594 368.878 16.3023 368.964 16.1881C369.05 16.0739 369.15 15.8883 369.249 15.6171L371.291 10.1928C371.391 9.92159 371.448 9.70747 371.448 9.56473C371.448 9.42198 371.405 9.30778 371.305 9.22214C371.205 9.13649 371.02 9.03657 370.763 8.92237L370.848 8.70825C371.148 8.83672 371.605 9.02229 372.233 9.26496C372.818 9.49335 373.289 9.65037 373.632 9.75029L373.546 9.96441C373.289 9.87877 373.089 9.83594 372.947 9.85022Z" fill="#292F36"/>
<path d="M385.651 17.4014C385.508 17.3729 385.365 17.4157 385.237 17.5014C385.109 17.587 384.952 17.7583 384.78 18.001L380.641 23.6109L380.427 23.4538L380.983 14.4323L377.315 19.3999C377.143 19.6425 377.029 19.8424 376.972 19.9994C376.915 20.1564 376.944 20.2992 377.015 20.4419C377.086 20.5847 377.258 20.7417 377.5 20.9415L377.357 21.1271C377.143 20.9415 376.829 20.6989 376.415 20.3848C376.044 20.1136 375.744 19.8995 375.516 19.771L375.659 19.5854C375.887 19.7425 376.073 19.8281 376.216 19.8424C376.358 19.8709 376.501 19.8281 376.63 19.7425C376.758 19.6425 376.915 19.4855 377.086 19.2429L380.455 14.675C380.626 14.4323 380.741 14.2468 380.783 14.1183C380.826 13.9898 380.812 13.8614 380.741 13.7472C380.669 13.633 380.527 13.4902 380.298 13.3046L380.441 13.1191C380.626 13.2904 380.912 13.5188 381.297 13.79C381.583 14.0041 381.826 14.1754 382.054 14.3039L381.597 21.8694L384.566 17.844C384.738 17.6013 384.866 17.4014 384.909 17.2444C384.952 17.0874 384.937 16.9447 384.866 16.8019C384.795 16.6592 384.623 16.4879 384.381 16.3023L384.523 16.1167C384.738 16.3023 385.051 16.545 385.465 16.859C385.837 17.1302 386.136 17.3443 386.365 17.4728L386.222 17.6584C385.979 17.5156 385.794 17.4157 385.651 17.4014Z" fill="#292F36"/>
<path d="M390.433 23.8392C390.804 23.568 391.19 23.2682 391.604 22.8971C391.96 23.4395 392.589 24.3388 393.488 25.6093C394.387 26.8654 395.029 27.7504 395.415 28.2643C394.93 28.5498 394.516 28.8068 394.144 29.0637C393.83 29.2921 393.573 29.4919 393.388 29.6489L393.231 29.4348C393.688 29.0351 394.002 28.7068 394.187 28.4642C394.373 28.2215 394.444 27.9646 394.43 27.6933C394.416 27.4221 394.244 27.0938 393.973 26.6941L393.602 26.1802L388.192 30.0344C387.935 30.2199 387.749 30.3912 387.664 30.5197C387.578 30.6482 387.55 30.8052 387.607 30.9765C387.65 31.1335 387.778 31.3619 387.964 31.6474L387.778 31.7901C387.564 31.4475 387.236 30.9622 386.807 30.377C386.351 29.7346 386.008 29.2778 385.78 28.9923L385.965 28.8496C386.179 29.1208 386.351 29.3064 386.493 29.4063C386.636 29.5062 386.779 29.5348 386.936 29.4919C387.093 29.4491 387.307 29.3349 387.564 29.1493L392.974 25.2952L392.603 24.7813C392.317 24.3816 392.06 24.139 391.818 24.0248C391.575 23.9106 391.304 23.8963 391.018 23.9962C390.733 24.0962 390.319 24.2817 389.791 24.5815L389.634 24.3674C389.848 24.2532 390.105 24.0819 390.433 23.8392Z" fill="#292F36"/>
<path d="M393.174 43.6524L392.945 43.7237C392.86 43.4097 392.745 43.01 392.574 42.5247C392.36 41.8966 392.189 41.4255 392.06 41.1115L392.289 41.0401C392.388 41.3113 392.503 41.5112 392.588 41.6111C392.688 41.711 392.817 41.7396 392.96 41.6825C393.088 41.6396 393.245 41.5397 393.431 41.3827L395.015 40.0837L394.116 37.4144L392.788 37.3573C392.36 37.3287 392.032 37.3573 391.803 37.4429C391.575 37.5286 391.432 37.657 391.375 37.8426C391.332 38.0282 391.361 38.2994 391.461 38.6277L391.232 38.6991C391.118 38.2709 390.975 37.8426 390.833 37.4144C390.718 37.0861 390.619 36.8149 390.519 36.6007L390.747 36.5294C390.947 36.8719 391.375 37.0575 392.003 37.0718L399.597 37.4144L399.654 37.5857L393.602 42.6246C393.231 42.9814 393.088 43.3098 393.174 43.6524ZM398.127 37.5857L394.387 37.4287L395.229 39.941L398.127 37.5857Z" fill="#292F36"/>
<path d="M394.216 54.5724C394.359 54.5153 394.43 54.4439 394.43 54.344C394.43 54.2869 394.416 54.2441 394.387 54.2013C394.359 54.1584 394.302 54.0728 394.216 53.9586C394.002 53.6874 393.845 53.4019 393.731 53.1164C393.616 52.8309 393.559 52.5026 393.559 52.1457C393.545 51.3464 393.702 50.6612 394.016 50.0759C394.344 49.4907 394.801 49.0481 395.429 48.7341C396.043 48.4201 396.785 48.263 397.656 48.2488C398.555 48.2345 399.34 48.3772 400.011 48.6913C400.682 49.0053 401.21 49.4336 401.582 50.0045C401.953 50.5755 402.153 51.2179 402.153 51.9316C402.153 52.2456 402.124 52.5311 402.067 52.7738C402.01 53.0165 401.924 53.2306 401.824 53.4162C401.724 53.6017 401.596 53.8158 401.425 54.0442C401.353 54.1442 401.31 54.2298 401.31 54.2869C401.31 54.4297 401.553 54.5296 402.024 54.5724V54.8436C401.524 54.8151 400.625 54.8151 399.34 54.8436V54.5724C399.754 54.501 400.097 54.4154 400.368 54.3297C400.639 54.2441 400.868 54.1156 401.068 53.9586C401.339 53.7302 401.567 53.4304 401.724 53.0593C401.881 52.6882 401.953 52.317 401.953 51.9173C401.938 51.4034 401.767 50.9609 401.425 50.5755C401.082 50.1901 400.597 49.9046 399.983 49.6905C399.355 49.4907 398.641 49.3907 397.813 49.405C396.871 49.4193 396.114 49.5335 395.515 49.7476C394.915 49.9617 394.487 50.2758 394.202 50.6897C393.916 51.1037 393.788 51.6318 393.802 52.2742C393.816 52.7453 393.945 53.1449 394.187 53.4875C394.287 53.6303 394.373 53.7159 394.473 53.7587C394.559 53.8016 394.687 53.8158 394.844 53.8158L395.972 53.8016C396.3 53.8016 396.528 53.7587 396.685 53.7016C396.828 53.6445 396.942 53.5304 396.985 53.3591C397.042 53.202 397.071 52.9451 397.071 52.6025H397.299C397.285 52.9879 397.271 53.5304 397.285 54.2584C397.299 54.8008 397.313 55.2147 397.342 55.4717H397.114C397.099 55.2861 397.057 55.1577 397.014 55.0863C396.971 55.0149 396.871 54.9578 396.743 54.9293C396.614 54.9007 396.4 54.8864 396.1 54.9007L393.788 54.9435V54.7151C393.916 54.658 394.073 54.6295 394.216 54.5724Z" fill="#292F36"/>
<path d="M392.517 66.72C392.103 66.5915 391.618 66.463 391.061 66.3488C391.247 65.8492 391.518 65.007 391.903 63.8079C392.36 62.3805 392.688 61.2956 392.888 60.5676L393.117 60.639C393.045 60.9102 393.017 61.1101 393.017 61.2528C393.031 61.3955 393.088 61.4955 393.202 61.5811C393.316 61.6668 393.516 61.7524 393.788 61.8381L399.312 63.5796C399.597 63.6652 399.797 63.708 399.94 63.708C400.083 63.708 400.197 63.6509 400.282 63.5367C400.368 63.4225 400.454 63.237 400.554 62.98L400.782 63.0514C400.525 63.7794 400.183 64.85 399.726 66.2774C399.383 67.3623 399.14 68.1474 399.026 68.6185C398.555 68.4186 398.127 68.2473 397.727 68.1331C397.442 68.0475 397.199 67.9761 397.028 67.9476L397.113 67.6906C397.613 67.7905 397.999 67.8334 398.255 67.8334C398.512 67.8334 398.727 67.7477 398.898 67.5764C399.069 67.4194 399.212 67.1339 399.34 66.7485L399.626 65.8207C399.711 65.5494 399.754 65.3496 399.74 65.2211C399.726 65.0927 399.683 64.9785 399.569 64.8928C399.455 64.8072 399.269 64.7215 398.983 64.6359L396.357 63.8079L396.129 64.5502C396.014 64.9214 396.043 65.2069 396.228 65.4067C396.414 65.6065 396.614 65.7493 396.842 65.8492C397.071 65.9491 397.213 66.0205 397.271 66.049L397.185 66.306C396.828 66.1632 396.485 66.0348 396.143 65.9349L395.615 65.7778C395.244 65.6636 394.701 65.5066 394.016 65.3496L394.102 65.0927C394.159 65.1069 394.344 65.1355 394.658 65.2069C394.972 65.2639 395.244 65.2354 395.458 65.1212C395.672 65.007 395.815 64.7929 395.914 64.4931L396.143 63.7508L393.459 62.9087C393.174 62.823 392.974 62.7802 392.831 62.7802C392.688 62.7802 392.574 62.8373 392.503 62.9515C392.417 63.0657 392.332 63.2512 392.246 63.5225L391.989 64.3361C391.846 64.8072 391.789 65.1783 391.846 65.4495C391.889 65.735 392.032 65.9634 392.274 66.1632C392.517 66.3488 392.888 66.5629 393.388 66.7913L393.302 67.0483C393.131 66.9198 392.86 66.8342 392.517 66.72Z" fill="#292F36"/>
<path d="M388.449 84.2348C388.506 84.1064 388.492 83.9779 388.435 83.8494C388.378 83.7209 388.235 83.5639 388.021 83.3498L383.824 79.3387C383.61 79.1388 383.439 79.0104 383.31 78.9533C383.182 78.8962 383.053 78.8962 382.925 78.9533C382.796 79.0104 382.639 79.1388 382.439 79.3387L382.268 79.1816C382.539 78.939 382.882 78.5821 383.324 78.1396C383.781 77.6543 384.124 77.2831 384.338 77.0405L384.509 77.1975C384.324 77.4116 384.209 77.5829 384.152 77.6971C384.095 77.8256 384.11 77.954 384.167 78.0825C384.224 78.211 384.366 78.368 384.58 78.5821L388.777 82.5933C388.991 82.7931 389.163 82.9216 389.291 82.9787C389.42 83.0358 389.548 83.0358 389.676 82.9787C389.805 82.9216 389.962 82.7931 390.162 82.5933L390.333 82.7503C390.09 82.9644 389.734 83.3213 389.277 83.8066C388.834 84.2634 388.506 84.6345 388.278 84.9057L388.106 84.7487C388.278 84.5346 388.392 84.3633 388.449 84.2348Z" fill="#292F36"/>
<path d="M376.558 92.9422C376.644 92.8138 376.658 92.6853 376.63 92.5283C376.601 92.3713 376.501 92.1714 376.344 91.9002L372.804 85.8906L373.032 85.7479L381.112 89.7876L377.986 84.4774C377.829 84.2205 377.7 84.0349 377.572 83.935C377.443 83.8351 377.3 83.7923 377.143 83.8065C376.986 83.8208 376.772 83.9065 376.501 84.0492L376.373 83.8494C376.629 83.7352 376.972 83.5353 377.415 83.2784C377.814 83.0357 378.114 82.8501 378.328 82.6931L378.442 82.893C378.214 83.0357 378.057 83.1784 377.986 83.3069C377.9 83.4354 377.886 83.5639 377.914 83.7209C377.943 83.8779 378.043 84.0777 378.2 84.349L381.083 89.2451C381.226 89.5021 381.354 89.6734 381.469 89.759C381.583 89.8447 381.697 89.8875 381.84 89.8589C381.968 89.8304 382.168 89.759 382.411 89.6305L382.525 89.8304C382.297 89.9446 381.982 90.1159 381.568 90.3585C381.269 90.5298 381.012 90.7011 380.798 90.8439L374.017 87.4608L376.558 91.7717C376.715 92.0287 376.844 92.2142 376.972 92.3142C377.086 92.4141 377.229 92.4569 377.4 92.4426C377.572 92.4283 377.786 92.3427 378.057 92.2L378.171 92.3998C377.914 92.514 377.572 92.7138 377.129 92.9708C376.729 93.2134 376.43 93.399 376.216 93.556L376.101 93.3562C376.316 93.1992 376.472 93.0564 376.558 92.9422Z" fill="#292F36"/>
<path d="M368.707 94.8123C368.807 95.2549 368.936 95.7402 369.107 96.2541C368.464 96.3683 367.394 96.5967 365.881 96.9107C364.368 97.239 363.311 97.4817 362.683 97.6387C362.612 97.082 362.541 96.5967 362.441 96.1542C362.355 95.7687 362.284 95.4547 362.198 95.2263L362.455 95.1692C362.64 95.7545 362.812 96.1684 362.969 96.4396C363.126 96.7109 363.326 96.8822 363.583 96.9678C363.84 97.0534 364.211 97.0392 364.682 96.9392L365.296 96.8108L363.897 90.3159C363.825 90.0018 363.754 89.7734 363.654 89.645C363.554 89.5165 363.44 89.4308 363.269 89.4166C363.097 89.388 362.84 89.4166 362.498 89.4737L362.455 89.2453C362.855 89.1882 363.426 89.074 364.139 88.917C364.896 88.7457 365.467 88.6172 365.824 88.5173L365.867 88.7457C365.524 88.8313 365.296 88.917 365.153 89.0026C365.01 89.0883 364.924 89.2167 364.896 89.3737C364.867 89.5308 364.882 89.7734 364.953 90.0875L366.352 96.5824L366.966 96.4539C367.437 96.354 367.779 96.2112 367.979 96.0257C368.179 95.8401 368.293 95.5974 368.322 95.2977C368.35 94.9979 368.336 94.5411 368.265 93.9416L368.522 93.8845C368.564 94.1129 368.621 94.4269 368.707 94.8123Z" fill="#292F36"/>
<path d="M349.765 90.8011C349.808 90.3586 349.822 89.859 349.822 89.3022C350.35 89.3736 351.235 89.4593 352.491 89.5735C353.976 89.7019 355.103 89.8019 355.874 89.8447L355.86 90.0731C355.575 90.0588 355.375 90.0731 355.246 90.1159C355.118 90.1587 355.018 90.2301 354.961 90.3586C354.904 90.487 354.861 90.7012 354.832 90.9866L354.318 96.7678C354.29 97.0533 354.304 97.2674 354.333 97.4102C354.361 97.5529 354.447 97.6528 354.575 97.7099C354.704 97.767 354.904 97.8241 355.175 97.8527L355.161 98.0811C354.404 97.9954 353.276 97.8812 351.792 97.7528C350.65 97.6528 349.836 97.5958 349.351 97.5672C349.451 97.0676 349.522 96.6108 349.551 96.1968C349.579 95.8971 349.594 95.6544 349.579 95.4688L349.85 95.4974C349.865 96.0113 349.893 96.3824 349.965 96.6394C350.022 96.8963 350.15 97.0819 350.35 97.2103C350.536 97.3388 350.85 97.4245 351.249 97.453L352.22 97.5386C352.506 97.5672 352.705 97.5529 352.834 97.5244C352.962 97.4958 353.062 97.4102 353.119 97.2817C353.176 97.1532 353.219 96.9391 353.248 96.6536L353.49 93.9129L352.72 93.8415C352.334 93.813 352.063 93.8986 351.906 94.127C351.763 94.3554 351.649 94.5838 351.606 94.8265C351.549 95.0692 351.521 95.2262 351.506 95.2975L351.235 95.269C351.292 94.8836 351.335 94.5267 351.378 94.1699L351.421 93.6132C351.449 93.2135 351.478 92.671 351.506 91.9573L351.778 91.9859C351.778 92.043 351.792 92.2285 351.792 92.5568C351.806 92.8852 351.877 93.1421 352.049 93.3134C352.206 93.499 352.448 93.5989 352.762 93.6274L353.533 93.6988L353.776 90.901C353.805 90.6155 353.79 90.4014 353.762 90.2586C353.733 90.1302 353.648 90.0302 353.519 89.9732C353.391 89.9161 353.191 89.8732 352.919 89.8447L352.063 89.7733C351.578 89.7305 351.206 89.759 350.935 89.8732C350.678 89.9731 350.479 90.173 350.336 90.4442C350.193 90.7154 350.079 91.1294 349.965 91.6718L349.693 91.6433C349.693 91.4292 349.722 91.1437 349.765 90.8011Z" fill="#292F36"/>
<path d="M338.531 85.5052C338.745 85.4624 338.988 85.5052 339.245 85.6194C339.544 85.7479 339.744 85.9335 339.858 86.1761C339.973 86.4331 339.987 86.7899 339.915 87.261L339.701 88.4315C339.63 88.8455 339.587 89.1595 339.573 89.4022C339.559 89.6306 339.616 89.8447 339.716 90.0303C339.816 90.2158 340.001 90.3586 340.272 90.4728L341.3 90.901L342.342 88.4172C342.456 88.146 342.513 87.9462 342.528 87.8034C342.542 87.6607 342.485 87.5465 342.385 87.4466C342.285 87.3467 342.114 87.2467 341.857 87.1325L341.942 86.9184C342.271 87.0754 342.713 87.2753 343.299 87.518C343.912 87.7749 344.383 87.9605 344.697 88.0604L344.612 88.2745C344.341 88.1746 344.141 88.1318 344.012 88.1175C343.869 88.1175 343.755 88.1603 343.67 88.2745C343.57 88.3744 343.47 88.56 343.356 88.8312L341.115 94.1842C341 94.4554 340.943 94.6552 340.929 94.798C340.915 94.9407 340.972 95.0549 341.072 95.1548C341.172 95.2547 341.343 95.3547 341.6 95.4831L341.514 95.6973C341.214 95.5545 340.786 95.3547 340.215 95.112C339.93 94.9978 339.63 94.8693 339.287 94.7266C338.945 94.5839 338.716 94.4982 338.588 94.4411C338.031 94.1984 337.589 93.9272 337.26 93.5989C336.932 93.2706 336.746 92.928 336.661 92.5569C336.575 92.1857 336.618 91.8289 336.775 91.472C336.889 91.1865 337.075 90.9296 337.332 90.7012C337.589 90.4728 337.917 90.3015 338.317 90.2158C338.716 90.1302 339.202 90.1445 339.73 90.2729L339.601 90.2016C339.302 90.016 339.073 89.8304 338.931 89.6306C338.788 89.445 338.688 89.2309 338.659 89.0025C338.616 88.7741 338.631 88.4886 338.688 88.146L338.888 86.9327C338.93 86.69 338.959 86.5045 338.959 86.3617C338.959 86.219 338.945 86.1048 338.902 86.0191C338.859 85.9335 338.788 85.8621 338.688 85.8336C338.574 85.7765 338.459 85.7765 338.36 85.805C338.26 85.8336 338.117 85.9049 337.931 86.0048L337.817 85.8193C338.074 85.6623 338.317 85.5481 338.531 85.5052ZM339.245 90.587C338.902 90.6298 338.631 90.7583 338.417 90.9724C338.202 91.1865 338.017 91.472 337.86 91.8431C337.617 92.4284 337.56 92.9423 337.717 93.3562C337.874 93.7702 338.26 94.1128 338.902 94.384C339.13 94.4839 339.302 94.5268 339.444 94.5125C339.573 94.5125 339.687 94.4554 339.787 94.3412C339.887 94.227 339.987 94.0414 340.087 93.7845L341.2 91.1294L340.472 90.8296C340.001 90.6298 339.587 90.5441 339.245 90.587Z" fill="#292F36"/>
<path d="M327.397 87.4466C327.525 87.4894 327.653 87.4609 327.768 87.3895C327.882 87.3181 328.039 87.1611 328.224 86.9327L331.807 82.3649C331.993 82.1365 332.107 81.9509 332.15 81.8225C332.193 81.694 332.179 81.5655 332.107 81.4513C332.036 81.3371 331.893 81.1801 331.679 80.9945L331.822 80.809C332.093 81.0516 332.464 81.3657 332.964 81.7511C333.492 82.165 333.891 82.4648 334.163 82.6504L334.02 82.8359C333.792 82.6647 333.606 82.5647 333.478 82.5362C333.349 82.4934 333.221 82.5076 333.106 82.5933C332.992 82.6646 332.835 82.8217 332.65 83.0501L329.067 87.6179C328.881 87.8463 328.767 88.0319 328.724 88.1603C328.681 88.2888 328.696 88.4173 328.767 88.5315C328.838 88.6457 328.981 88.8027 329.195 88.9883L329.052 89.1738C328.81 88.9597 328.424 88.6457 327.896 88.2174C327.397 87.832 326.997 87.5323 326.711 87.3324L326.854 87.1469C327.097 87.3039 327.268 87.4038 327.397 87.4466Z" fill="#292F36"/>
<path d="M318.175 77.2832C318.118 76.6409 318.261 75.9985 318.589 75.3847C318.932 74.7566 319.446 74.1999 320.159 73.6717C320.859 73.1721 321.558 72.8438 322.286 72.7154C323.014 72.5869 323.685 72.6297 324.313 72.8724C324.941 73.115 325.47 73.529 325.884 74.1143C326.326 74.7138 326.569 75.3419 326.626 75.9842C326.683 76.6266 326.54 77.2689 326.212 77.8827C325.869 78.5108 325.355 79.0675 324.642 79.5957C323.942 80.0953 323.243 80.4236 322.515 80.5521C321.801 80.6805 321.116 80.6377 320.488 80.3951C319.86 80.1524 319.332 79.7384 318.918 79.1674C318.475 78.5536 318.232 77.9256 318.175 77.2832ZM320.316 79.8241C320.816 79.924 321.387 79.8812 322.015 79.6813C322.643 79.4815 323.271 79.1532 323.928 78.6678C324.585 78.1968 325.098 77.6829 325.455 77.1405C325.826 76.598 326.026 76.0556 326.055 75.5417C326.098 75.0278 325.969 74.571 325.698 74.1856C325.398 73.7859 325.013 73.529 324.499 73.4291C323.999 73.3292 323.428 73.372 322.8 73.5718C322.172 73.7717 321.544 74.1 320.887 74.571C320.231 75.0421 319.717 75.556 319.36 76.1127C318.989 76.6551 318.789 77.1833 318.746 77.7114C318.703 78.2253 318.832 78.6821 319.103 79.0675C319.403 79.4672 319.803 79.7242 320.316 79.8241Z" fill="#292F36"/>
<path d="M319.274 60.0966C319.446 60.2251 319.574 60.4392 319.66 60.7247C319.76 61.0245 319.745 61.31 319.631 61.5526C319.517 61.8096 319.246 62.0522 318.832 62.2949L317.79 62.8801C317.433 63.0943 317.162 63.2656 316.976 63.4083C316.791 63.5511 316.662 63.7224 316.591 63.9222C316.519 64.122 316.519 64.3504 316.605 64.6359L316.933 65.7065L319.503 64.9071C319.788 64.8215 319.974 64.7358 320.088 64.6502C320.202 64.5645 320.259 64.4504 320.274 64.3219C320.288 64.1934 320.245 63.9793 320.174 63.7081L320.402 63.6367C320.488 63.9793 320.616 64.4646 320.816 65.0642C321.016 65.7065 321.173 66.1776 321.287 66.4773L321.059 66.5487C320.959 66.2775 320.873 66.0919 320.788 65.992C320.702 65.8921 320.588 65.8207 320.445 65.8207C320.302 65.8207 320.088 65.8493 319.817 65.9492L314.278 67.6621C313.993 67.7478 313.807 67.8334 313.693 67.9191C313.579 68.0047 313.522 68.1189 313.508 68.2474C313.493 68.3901 313.536 68.59 313.607 68.8612L313.379 68.9326C313.308 68.6185 313.179 68.1617 312.994 67.5622C312.908 67.2767 312.794 66.9484 312.68 66.6058C312.565 66.2632 312.48 66.0205 312.437 65.8921C312.251 65.3068 312.194 64.7929 312.237 64.3362C312.28 63.8794 312.423 63.5082 312.651 63.2085C312.879 62.9087 313.179 62.7089 313.55 62.5947C313.836 62.509 314.15 62.4805 314.493 62.5233C314.835 62.5661 315.163 62.7089 315.506 62.9658C315.849 63.2227 316.134 63.5939 316.377 64.0935L316.362 63.9507C316.32 63.5939 316.305 63.3084 316.362 63.0657C316.42 62.8231 316.519 62.6232 316.662 62.4519C316.819 62.2806 317.048 62.0951 317.347 61.9238L318.404 61.2957C318.618 61.1815 318.789 61.0673 318.889 60.9816C318.989 60.896 319.075 60.8103 319.117 60.7247C319.16 60.639 319.16 60.5391 319.132 60.4392C319.089 60.3107 319.032 60.2251 318.946 60.168C318.86 60.1109 318.718 60.0395 318.518 59.9681L318.589 59.754C318.875 59.854 319.117 59.9681 319.274 60.0966ZM315.863 63.9222C315.62 63.6938 315.335 63.5653 315.035 63.5368C314.735 63.5082 314.393 63.5511 314.007 63.6795C313.393 63.8651 312.979 64.1649 312.751 64.5503C312.523 64.9357 312.523 65.4638 312.722 66.1062C312.794 66.3346 312.879 66.5059 312.965 66.6058C313.051 66.7057 313.179 66.7628 313.322 66.7628C313.465 66.7628 313.679 66.72 313.936 66.6486L316.676 65.7922L316.448 65.0356C316.305 64.5217 316.105 64.1506 315.863 63.9222Z" fill="#292F36"/>
<path d="M318.175 46.5501C318.718 46.3074 319.046 45.8506 319.189 45.1655C319.232 44.9085 319.232 44.6516 319.16 44.4089C319.089 44.1662 318.96 43.9521 318.761 43.7666C318.561 43.581 318.289 43.4525 317.933 43.3954C317.633 43.3383 317.362 43.3669 317.105 43.4668C316.848 43.5667 316.591 43.7237 316.348 43.9379C316.105 44.152 315.82 44.4375 315.506 44.7943C315.149 45.194 314.835 45.5223 314.564 45.7507C314.293 45.9934 313.993 46.1647 313.665 46.2932C313.336 46.4216 312.965 46.4359 312.551 46.3645C312.123 46.2789 311.766 46.1219 311.509 45.8649C311.252 45.608 311.067 45.3082 310.981 44.9513C310.895 44.5945 310.895 44.2233 310.967 43.8237C311.009 43.581 311.067 43.3954 311.138 43.2241C311.209 43.0528 311.281 42.9244 311.366 42.8244C311.452 42.7245 311.538 42.6103 311.652 42.4961C311.795 42.3391 311.866 42.2249 311.895 42.1393C311.909 42.0679 311.88 42.0108 311.809 41.9537C311.737 41.8966 311.609 41.8538 311.438 41.7967L311.481 41.5397C311.923 41.6539 312.694 41.8252 313.822 42.0393L313.779 42.2963C313.379 42.2535 313.008 42.2677 312.637 42.3534C312.28 42.4248 311.966 42.5818 311.709 42.8244C311.452 43.0528 311.281 43.3811 311.209 43.7808C311.152 44.0521 311.167 44.2947 311.238 44.5374C311.309 44.7801 311.438 44.9656 311.609 45.1226C311.795 45.2797 312.009 45.3796 312.266 45.4367C312.68 45.5081 313.036 45.451 313.336 45.2511C313.636 45.0513 313.921 44.7943 314.193 44.4946C314.464 44.1948 314.635 43.995 314.735 43.895C315.135 43.4668 315.463 43.1385 315.734 42.8958C316.006 42.6531 316.305 42.4819 316.634 42.3677C316.962 42.2535 317.319 42.2392 317.704 42.3106C318.175 42.3962 318.561 42.5818 318.846 42.853C319.132 43.1385 319.317 43.4668 319.417 43.8665C319.517 44.2662 319.517 44.6944 319.431 45.1512C319.36 45.5223 319.274 45.8078 319.146 46.0362C319.032 46.2646 318.875 46.4644 318.703 46.65C318.561 46.807 318.489 46.9212 318.461 47.0069C318.446 47.0783 318.475 47.1354 318.546 47.1925C318.618 47.2495 318.746 47.3066 318.918 47.3495L318.875 47.6064C318.461 47.4922 317.547 47.3066 316.134 47.0497L316.177 46.7928C316.976 46.8641 317.633 46.7928 318.175 46.5501Z" fill="#292F36"/>
<path d="M315.349 34.5165C314.949 34.3024 314.492 34.1026 313.979 33.9027C314.293 33.346 314.821 32.3754 315.534 30.9907C316.248 29.6204 316.748 28.6497 317.019 28.0645C317.49 28.3642 317.918 28.6212 318.304 28.821C318.646 29.0066 318.946 29.135 319.174 29.235L319.046 29.4776C318.475 29.2492 318.047 29.1065 317.747 29.0637C317.447 29.0066 317.176 29.0637 316.948 29.2064C316.719 29.3492 316.491 29.6347 316.277 30.0629L315.991 30.6339L321.887 33.7029C322.172 33.8599 322.4 33.9313 322.557 33.9456C322.714 33.9598 322.857 33.917 322.986 33.8028C323.114 33.6886 323.257 33.4745 323.428 33.1747L323.642 33.2889C323.428 33.6458 323.157 34.1454 322.814 34.802C322.458 35.4872 322.201 36.0154 322.044 36.3437L321.829 36.2295C321.972 35.9154 322.072 35.6728 322.086 35.5158C322.115 35.3445 322.072 35.2017 321.958 35.0733C321.844 34.9448 321.658 34.8163 321.373 34.6593L315.477 31.576L315.178 32.1327C314.949 32.5609 314.849 32.9035 314.864 33.1747C314.878 33.446 314.992 33.6886 315.206 33.9027C315.42 34.1169 315.777 34.4023 316.291 34.7307L316.162 34.9733C315.977 34.8591 315.691 34.7021 315.349 34.5165Z" fill="#292F36"/>
<path d="M325.427 18.1153C325.669 17.8726 325.869 17.6442 326.012 17.4729L326.183 17.6442C326.098 17.7727 326.055 17.9582 326.069 18.1724C326.083 18.3865 326.14 18.6862 326.255 19.0431L327.554 22.9115L329.067 24.4103C329.281 24.6102 329.438 24.7529 329.566 24.81C329.695 24.8671 329.823 24.8671 329.952 24.81C330.08 24.7529 330.237 24.6244 330.451 24.4389L330.623 24.6102C330.351 24.8528 329.995 25.1954 329.552 25.6379C329.081 26.109 328.738 26.4801 328.524 26.7228L328.353 26.5515C328.539 26.3374 328.667 26.1804 328.724 26.0519C328.781 25.9234 328.781 25.795 328.71 25.6665C328.653 25.538 328.51 25.3667 328.31 25.1669L327.054 23.925L322.286 22.5261C322.001 22.4404 321.787 22.4119 321.644 22.4262C321.501 22.4404 321.401 22.4833 321.33 22.5546L321.159 22.3833C321.387 22.1835 321.644 21.9551 321.901 21.6839C322.429 21.1415 322.814 20.756 323.029 20.4991L323.2 20.6704C322.814 21.0558 322.729 21.3556 322.943 21.5697C323.029 21.6553 323.143 21.7124 323.314 21.7695L327.325 23.0114L326.269 19.8567C326.112 19.4 325.955 19.0859 325.784 18.9289C325.627 18.7719 325.455 18.7291 325.27 18.7862C325.084 18.8433 324.87 18.986 324.613 19.2287L324.442 19.0574C324.784 18.7433 325.098 18.4293 325.427 18.1153Z" fill="#292F36"/>
<path d="M334.063 12.3626C333.977 12.4625 333.934 12.591 333.963 12.7337C333.991 12.8765 334.063 13.0763 334.206 13.3333L336.961 18.4436C337.103 18.7005 337.217 18.8718 337.332 18.9717C337.432 19.0716 337.56 19.1002 337.689 19.0859C337.817 19.0716 338.017 18.986 338.26 18.8575L339.016 18.4436C339.444 18.2152 339.744 17.9725 339.901 17.7298C340.058 17.4872 340.115 17.2159 340.072 16.8876C340.03 16.5593 339.901 16.1454 339.673 15.6029L339.915 15.4745C340.015 15.7028 340.158 15.9883 340.344 16.3309C340.558 16.7163 340.815 17.1446 341.129 17.6156C340.658 17.844 339.858 18.258 338.759 18.8575C337.446 19.5712 336.447 20.1137 335.79 20.4991L335.676 20.2992C335.919 20.1565 336.09 20.028 336.175 19.9281C336.261 19.8282 336.304 19.6997 336.275 19.557C336.247 19.4142 336.175 19.2144 336.033 18.9574L333.249 13.8472C333.106 13.5902 332.992 13.4189 332.878 13.319C332.778 13.2191 332.65 13.1905 332.521 13.2048C332.378 13.2191 332.193 13.2905 331.936 13.4189L331.836 13.2048C332.136 13.0763 332.578 12.8479 333.164 12.5196C333.72 12.2199 334.148 11.9772 334.448 11.7916L334.562 11.9915C334.32 12.1342 334.163 12.2627 334.063 12.3626Z" fill="#292F36"/>
<path d="M351.449 13.2759C351.535 13.7042 351.663 14.1895 351.82 14.7319C351.292 14.8176 350.421 14.9746 349.194 15.2173C347.723 15.5028 346.624 15.7312 345.868 15.9025L345.825 15.6741C346.096 15.6027 346.296 15.5456 346.41 15.4599C346.524 15.3886 346.596 15.2744 346.61 15.1459C346.624 15.0032 346.61 14.789 346.553 14.5036L345.44 8.80805C345.382 8.52256 345.325 8.32272 345.24 8.19425C345.154 8.06578 345.068 7.9944 344.926 7.98013C344.797 7.95158 344.583 7.96585 344.312 8.00868L344.269 7.78028C345.026 7.65181 346.139 7.45197 347.595 7.16648C348.723 6.93809 349.522 6.78107 349.979 6.66687C350.022 7.18075 350.093 7.63754 350.164 8.03723C350.221 8.33699 350.279 8.56538 350.336 8.73668L350.079 8.79378C349.922 8.30844 349.779 7.95158 349.65 7.72319C349.522 7.49479 349.336 7.35205 349.122 7.28068C348.894 7.2093 348.594 7.2093 348.18 7.29495L347.224 7.48052C346.953 7.53762 346.753 7.59472 346.639 7.66609C346.524 7.73746 346.453 7.83738 346.424 7.98013C346.41 8.12287 346.424 8.33699 346.482 8.62248L347.01 11.3346L347.766 11.1776C348.152 11.1062 348.38 10.935 348.466 10.678C348.551 10.4211 348.58 10.1784 348.566 9.93574C348.551 9.69307 348.537 9.53605 348.537 9.46468L348.794 9.40758C348.837 9.79299 348.894 10.1499 348.965 10.4924L349.08 11.0348C349.151 11.4203 349.279 11.9627 349.465 12.6479L349.208 12.705C349.194 12.6479 349.137 12.4766 349.037 12.1625C348.937 11.8485 348.794 11.6344 348.58 11.5059C348.366 11.3774 348.123 11.3489 347.809 11.406L347.053 11.5487L347.595 14.3037C347.652 14.5892 347.709 14.789 347.781 14.9175C347.852 15.0317 347.952 15.1031 348.095 15.1316C348.223 15.1459 348.437 15.1316 348.708 15.0745L349.551 14.9032C350.022 14.8033 350.378 14.6748 350.607 14.5036C350.835 14.3323 350.964 14.0896 351.021 13.7898C351.078 13.4901 351.078 13.0618 351.035 12.5051L351.292 12.448C351.335 12.6621 351.378 12.9334 351.449 13.2759Z" fill="#292F36"/>
<path d="M341.828 67.7904C341.172 66.9054 340.601 65.9347 340.101 64.8641C339.601 63.7935 339.202 62.7087 338.902 61.5953C338.245 56.6991 338.231 51.9457 338.845 47.335C339.459 42.7243 340.458 38.185 341.828 33.7028C342.057 33.2032 342.556 32.9605 343.327 32.9605C344.098 32.9605 344.854 33.1318 345.625 33.4744C346.396 33.817 347.024 34.2738 347.524 34.8448C348.023 35.4158 348.138 36.0153 347.866 36.6291C347.438 37.5427 347.024 38.7846 346.61 40.3262C346.196 41.8821 345.782 43.5951 345.411 45.465C345.026 47.335 344.697 49.3049 344.412 51.3462C344.126 53.3874 343.912 55.3574 343.784 57.2274C343.655 59.0973 343.627 60.7959 343.698 62.309C343.77 63.8221 343.998 65.0212 344.383 65.8919C346.182 63.4795 347.824 60.9815 349.322 58.3978C350.821 55.8141 352.22 53.2018 353.533 50.5325C354.847 47.8774 356.103 45.1938 357.288 42.4674C358.472 39.7552 359.643 37.0716 360.785 34.4308C361.356 33.089 361.927 31.6758 362.484 30.1913C363.04 28.6925 363.768 27.422 364.696 26.3514C365.082 26.0088 365.381 25.8947 365.581 26.0088C365.795 26.123 365.938 26.3372 366.009 26.6655C366.081 26.9938 366.124 27.3364 366.124 27.6932C366.124 28.0501 366.124 28.3356 366.124 28.5212C365.852 30.2769 365.624 32.0184 365.438 33.7456C365.253 35.4729 364.839 37.1287 364.239 38.7417C363.24 41.2683 362.227 43.7664 361.17 46.2644C360.114 48.7482 358.986 51.2034 357.787 53.6158C356.588 56.0282 355.275 58.3692 353.89 60.6389C352.491 62.9228 350.978 65.0925 349.322 67.1481C348.023 68.7896 346.724 69.6604 345.454 69.7603C344.126 69.8745 342.942 69.2036 341.828 67.7904Z" fill="#292F36" stroke="white" stroke-miterlimit="10"/>
<path d="M365.467 61.3099C364.696 60.2393 363.94 59.1544 363.197 58.041C362.455 56.9276 362.084 55.7143 362.084 54.3725C362.084 52.8879 362.512 51.4747 363.369 50.1472C364.225 48.834 365.21 47.7634 366.323 46.964C366.78 46.6642 367.251 46.4073 367.722 46.2217C368.193 46.0361 368.707 46.0504 369.25 46.2788C369.478 46.393 369.721 46.4787 369.963 46.5358C370.206 46.5929 370.435 46.6642 370.62 46.7356C370.806 46.807 371.02 46.9212 371.248 47.0782C371.477 47.2352 371.591 47.4351 371.591 47.7063C371.591 48.7769 371.619 49.6476 371.676 50.3185C371.734 50.9894 371.819 51.5604 371.933 52.0457C372.048 52.5311 372.162 52.945 372.276 53.3019C372.39 53.673 372.504 54.0584 372.619 54.4724C372.69 54.8578 372.676 55.1861 372.561 55.4431C372.447 55.7143 372.162 55.7428 371.705 55.5573C370.863 55.2575 370.235 54.6437 369.835 53.7158C369.435 52.788 369.136 51.9601 368.95 51.1893C368.907 51.0322 368.822 50.7753 368.664 50.3899C368.507 50.0045 368.422 49.7333 368.379 49.5905C368.079 49.5191 367.708 49.6191 367.294 49.9045C366.88 50.19 366.495 50.5897 366.181 51.0751C365.852 51.5747 365.638 52.1456 365.553 52.8023C365.453 53.4589 365.581 54.1013 365.924 54.7579C366.081 54.9863 366.295 55.2718 366.58 55.5858C366.866 55.9141 367.151 56.2424 367.437 56.585C367.722 56.9276 368.008 57.2702 368.293 57.5842C368.579 57.8983 368.822 58.1695 369.007 58.3551C369.235 58.5835 369.392 58.7119 369.464 58.7262C369.535 58.7405 369.735 58.6977 370.035 58.5835C370.42 58.3979 371.006 58.141 371.791 57.8412C372.576 57.5414 373.404 57.2274 374.26 56.9276C375.117 56.6279 375.945 56.3709 376.73 56.1568C377.515 55.9427 378.114 55.8427 378.542 55.8427C378.814 55.8427 378.999 55.9427 379.113 56.1282C379.228 56.2424 379.213 56.3995 379.056 56.585C378.899 56.7706 378.699 56.9704 378.457 57.156C378.214 57.3416 377.943 57.5129 377.686 57.6699C377.415 57.8269 377.243 57.9126 377.172 57.9554C376.515 58.3408 375.702 58.769 374.703 59.2544C373.703 59.7254 372.847 60.1965 372.119 60.6533C372.048 60.7246 371.905 60.8103 371.691 60.8817C371.477 60.953 371.32 61.0387 371.205 61.1101C371.662 62.1378 371.99 63.0371 372.176 63.7794C372.362 64.5217 372.433 65.2354 372.376 65.9348C372.319 66.62 372.176 67.3195 371.948 68.0332C371.719 68.7469 371.405 69.5606 371.034 70.4741C370.492 71.3592 369.949 72.2014 369.392 73.0007C368.836 73.8001 368.222 74.5281 367.523 75.1847C366.837 75.8414 366.081 76.3553 365.281 76.7264C364.482 77.1118 363.597 77.2974 362.641 77.2974C362.098 77.2974 361.584 77.226 361.085 77.0975C360.585 76.9691 360.171 76.6836 359.829 76.2696C358.944 75.3132 358.458 74.2712 358.344 73.1435C358.23 72.0158 358.33 70.9024 358.629 69.789C358.858 69.1038 359.143 68.4757 359.486 67.8905C360.328 66.4345 361.256 65.2068 362.269 64.1934C363.297 63.1941 364.354 62.2235 365.467 61.3099ZM367.423 63.8936C366.994 64.3218 366.423 64.9214 365.695 65.7065C364.967 66.4916 364.296 67.348 363.654 68.2616C363.026 69.1752 362.512 70.0887 362.112 70.988C361.713 71.8873 361.613 72.6582 361.798 73.3148C362.569 72.9722 363.354 72.4012 364.154 71.6161C364.953 70.831 365.667 69.9745 366.281 69.0324C366.894 68.0903 367.323 67.1625 367.565 66.2489C367.808 65.321 367.765 64.5359 367.423 63.8936Z" fill="#292F36" stroke="white" stroke-miterlimit="10"/>
<path d="M356.16 84.5489C338.302 84.5489 323.771 70.0174 323.771 52.16C323.771 34.3025 338.302 19.7711 356.16 19.7711C374.017 19.7711 388.549 34.3025 388.549 52.16C388.549 70.0174 374.017 84.5489 356.16 84.5489ZM356.16 21.1985C339.088 21.1985 325.198 35.0876 325.198 52.16C325.198 69.2323 339.088 83.1214 356.16 83.1214C373.232 83.1214 387.121 69.2323 387.121 52.16C387.121 35.0876 373.232 21.1985 356.16 21.1985Z" fill="#292F36"/>
</g>
<g clip-path="url(#clip2_1_108)">
<path d="M552.797 73.776H525.979C521.572 73.776 518 70.2043 518 65.7971V38.9789C518 34.5717 521.572 31 525.979 31H552.797C557.204 31 560.776 34.5717 560.776 38.9789V65.7971C560.776 70.2043 557.204 73.776 552.797 73.776Z" fill="#292F36"/>
<path d="M547.094 52.7816C547.857 53.7381 548.245 54.852 548.245 56.1112C548.245 57.9636 547.627 59.4165 546.392 60.4457C545.157 61.4748 543.39 62.0076 541.089 62.0076H531.04V40.3955H540.847C543.051 40.3955 544.746 40.8798 545.944 41.8363C547.143 42.7928 547.748 44.161 547.748 45.9287C547.748 47.2363 547.397 48.3139 546.707 49.1856C546.017 50.0574 545.109 50.6143 543.983 50.8807C545.303 51.1955 546.332 51.8251 547.094 52.7816ZM536.258 49.2341H539.685C541.501 49.2341 542.409 48.4592 542.409 46.9094C542.409 45.3597 541.477 44.5848 539.624 44.5848H536.258V49.2341ZM542.893 55.3847C542.893 54.6098 542.639 54.0045 542.13 53.5686C541.622 53.1327 540.895 52.9148 539.963 52.9148H536.27V57.7699H539.999C541.925 57.7578 542.893 56.9708 542.893 55.3847Z" fill="white"/>
<path d="M585.56 62.0076L580.887 53.847H579.7V62.0076H574.47V40.3955H583.393C585.1 40.3955 586.553 40.6861 587.728 41.2794C588.914 41.8727 589.798 42.6839 590.391 43.713C590.984 44.7422 591.275 45.9166 591.275 47.2484C591.275 48.8224 590.839 50.1542 589.979 51.256C589.108 52.3578 587.861 53.1085 586.202 53.5202L591.336 62.0197H585.56V62.0076ZM579.7 50.2753H582.933C583.974 50.2753 584.737 50.0453 585.221 49.5852C585.706 49.1251 585.96 48.4471 585.96 47.5511C585.96 46.6915 585.705 46.0256 585.209 45.5292C584.713 45.0448 583.95 44.7906 582.933 44.7906H579.7V50.2753Z" fill="#292F36"/>
<path d="M614.933 58.0725H606.833L605.489 62.0195H599.992L607.911 40.5649H613.928L621.847 62.0195H616.289L614.933 58.0725ZM613.589 54.0891L610.901 46.1465L608.177 54.0891H613.589Z" fill="#292F36"/>
<path d="M650.699 62.0076H645.468L636.727 48.7377V62.0076H631.496V40.3955H636.727L645.468 53.7865V40.3955H650.699V62.0076Z" fill="#292F36"/>
<path d="M680.023 56.8012C679.115 58.4358 677.808 59.7192 676.113 60.6393C674.405 61.5595 672.408 62.0196 670.107 62.0196H661.947V40.4076H670.107C672.432 40.4076 674.442 40.8556 676.125 41.7515C677.82 42.6475 679.115 43.9067 680.023 45.5412C680.931 47.1757 681.379 49.0403 681.379 51.1712C681.379 53.2779 680.919 55.1546 680.023 56.8012ZM674.393 55.7115C675.519 54.634 676.088 53.1084 676.088 51.1591C676.088 49.1977 675.519 47.6842 674.393 46.6067C673.267 45.5291 671.681 44.9843 669.635 44.9843H667.165V57.334H669.635C671.681 57.334 673.267 56.8012 674.393 55.7115Z" fill="#292F36"/>
</g>
<g clip-path="url(#clip3_1_108)">
<path d="M791.241 38.8289L792.312 38.6005C792.583 38.6005 792.812 38.6576 792.969 38.7718C793.126 38.886 793.211 39.0002 793.211 39.1001C793.211 39.2 793.183 39.357 793.14 39.5426C793.097 39.7282 792.697 41.6409 791.955 45.2524C791.213 48.8638 790.67 51.5617 790.328 53.3318C791.984 51.0764 793.925 48.3071 796.137 45.0097C798.35 41.7123 799.649 39.5283 800.02 38.4435C800.134 38.1009 800.291 37.8439 800.477 37.6584C800.663 37.4728 800.834 37.3586 800.977 37.33C801.119 37.3015 801.348 37.2729 801.647 37.2729C801.947 37.2729 802.304 37.3443 802.718 37.4728C803.132 37.6013 803.346 37.8154 803.346 38.1294C803.346 38.7004 802.49 40.3705 800.791 43.1112C799.092 45.8519 797.137 48.7639 794.938 51.8472C792.74 54.9305 790.913 57.3715 789.443 59.17C789.186 59.4841 788.857 59.6554 788.486 59.6554C788.115 59.6554 787.716 59.584 787.302 59.4555C786.888 59.3271 786.673 59.0987 786.673 58.7561C786.673 57.6855 787.616 52.5181 789.5 43.2825C787.887 45.3666 785.931 48.2786 783.633 52.0042C781.235 55.8584 779.879 58.2565 779.565 59.17C779.393 59.7268 779.194 60.0551 778.965 60.1407C778.808 60.2121 778.637 60.2406 778.466 60.2406L777.309 60.3691C777.081 60.3691 776.881 60.312 776.681 60.1835C776.496 60.0551 776.396 59.9266 776.396 59.7839C776.396 59.3984 776.938 58.2279 778.009 56.2866C779.079 54.3453 780.35 52.2326 781.792 49.9487C783.233 47.6648 784.732 45.4522 786.302 43.2968C787.873 41.1413 789.086 39.6853 789.942 38.9573C790.114 38.8003 790.313 38.7289 790.542 38.7289L791.241 38.8289Z" fill="#292F36"/>
<path d="M808.399 48.5072C809.142 48.5072 809.513 48.7642 809.513 49.2638C809.513 49.535 809.456 49.7348 809.327 49.8633C809.199 49.9918 808.928 50.4057 808.514 51.1337C808.1 51.8475 807.643 52.761 807.143 53.8887C806.644 55.0021 806.315 55.9585 806.173 56.7436C806.144 56.8435 806.13 56.972 806.13 57.1576C806.13 57.7 806.272 57.957 806.572 57.957C806.872 57.957 807.215 57.8142 807.614 57.543C808.014 57.2575 808.371 56.972 808.685 56.6437C808.999 56.3297 809.299 56.0013 809.598 55.673C809.898 55.3447 810.07 55.1449 810.127 55.1021C810.184 55.0592 810.269 55.0307 810.384 55.0307C810.569 55.0307 810.683 55.1734 810.726 55.4589C810.769 55.7444 810.783 56.0299 810.783 56.3439C810.783 56.658 810.755 56.8578 810.698 56.972C810.412 57.5287 809.798 58.1996 808.828 58.9847C807.871 59.7698 806.986 60.1552 806.201 60.1552C805.416 60.1552 804.831 59.9126 804.474 59.4415C804.117 58.9704 803.917 58.428 803.917 57.857C803.917 57.2718 804.017 56.7722 804.217 56.3297C803.403 57.386 802.475 58.271 801.433 59.0133C800.377 59.7413 799.535 60.1124 798.864 60.1124C798.193 60.1124 797.665 59.9126 797.237 59.5129C796.694 59.0133 796.437 58.3281 796.437 57.4431C796.437 56.5581 796.637 55.673 797.037 54.7737C797.437 53.8887 797.95 53.0608 798.593 52.3328C799.235 51.5905 799.949 50.9196 800.72 50.3201C802.333 49.0496 803.832 48.4216 805.202 48.4216C805.73 48.4216 806.158 48.5072 806.487 48.6785C806.815 48.8498 807.029 49.0782 807.115 49.3351C807.343 48.9783 807.543 48.7642 807.714 48.6642C807.843 48.55 808.085 48.5072 808.399 48.5072ZM806.458 50.1345C804.788 50.1345 803.061 51.0624 801.276 52.918C800.648 53.5889 800.063 54.3741 799.521 55.3019C798.978 56.2297 798.721 56.8578 798.721 57.2004C798.721 57.543 798.821 57.7143 799.021 57.7143C799.292 57.7143 800.049 57.1719 801.305 56.1013C802.561 55.0307 803.389 54.2313 803.789 53.7174C804.245 53.1464 805.131 51.9474 806.458 50.1345Z" fill="#292F36"/>
<path d="M819.505 40.7703L820.105 40.913C820.19 40.913 820.276 40.9558 820.333 41.0415C820.404 41.1271 820.433 41.2128 820.433 41.2841C820.433 41.3555 820.333 41.5696 820.119 41.9122C819.905 42.2548 819.676 42.6402 819.391 43.0685C819.105 43.4967 818.963 43.7394 818.948 43.7822C819.705 43.7251 820.247 43.6965 820.561 43.6965C820.875 43.6965 821.089 43.7251 821.218 43.7679C821.332 43.8107 821.475 43.9392 821.618 44.1391C821.775 44.3389 821.903 44.4959 822.032 44.5958C822.16 44.6958 822.217 44.8528 822.217 45.0526C822.217 45.2525 822.089 45.438 821.846 45.5665C821.603 45.7093 821.332 45.7949 821.047 45.8235C818.777 46.0518 817.535 46.166 817.307 46.1803C816.522 47.3937 815.408 49.2779 813.995 51.833C812.582 54.3882 811.825 56.0012 811.74 56.6435C811.697 56.9433 811.683 57.1717 811.683 57.3573C811.683 57.7427 811.882 57.9283 812.282 57.9283C812.682 57.9283 813.124 57.7712 813.61 57.4715C814.095 57.1574 814.552 56.8291 814.951 56.4723C816.051 55.5016 816.636 55.002 816.707 55.002C816.964 55.002 817.093 55.4445 817.093 56.3152C817.093 56.7863 816.879 57.2145 816.436 57.5999C815.451 58.4421 814.623 59.0845 813.952 59.5127C813.281 59.941 812.61 60.1551 811.925 60.1551C811.782 60.1551 811.64 60.1408 811.511 60.1123C810.726 59.9695 810.155 59.684 809.798 59.2558C809.427 58.8276 809.256 58.2566 809.256 57.5428C809.256 56.8291 809.47 55.9441 809.898 54.9163C810.326 53.8886 810.855 52.7894 811.497 51.6332C812.553 49.7347 813.61 47.9646 814.652 46.3088L814.095 46.3802C812.967 46.5086 812.311 46.5657 812.125 46.5657H811.997C811.711 46.5657 811.44 46.5086 811.183 46.3944C810.926 46.2802 810.783 46.1375 810.783 45.9805C810.783 45.8092 810.855 45.6522 810.997 45.4951C811.14 45.3381 811.226 45.2096 811.254 45.124C811.326 44.9099 811.583 44.6672 812.025 44.4103C812.468 44.1533 812.796 44.0106 813.024 43.9963C813.253 43.982 813.467 43.9678 813.681 43.9535C813.895 43.9392 814.124 43.9392 814.38 43.9249C814.637 43.9107 814.837 43.9107 814.98 43.8964L816.293 43.8393C817.107 42.6117 817.678 41.8123 817.978 41.4697C818.292 41.1129 818.463 40.9273 818.506 40.8987C818.549 40.8702 818.649 40.8416 818.806 40.8416L819.505 40.7703Z" fill="#292F36"/>
<path d="M828.284 55.0306C828.469 55.0306 828.583 55.1735 828.626 55.459C828.669 55.7445 828.683 56.0299 828.683 56.344C828.683 56.658 828.655 56.8578 828.598 56.972C828.312 57.5144 827.698 58.1853 826.742 58.9704C825.786 59.7555 824.872 60.1552 824.016 60.1552C823.487 60.1552 823.002 59.9982 822.545 59.6841C822.103 59.3701 821.874 58.8134 821.874 58.0283C821.874 57.2432 822.089 56.4581 822.502 55.7015C820.076 58.742 818.192 60.2551 816.807 60.2551C816.264 60.2551 815.822 60.0554 815.479 59.67C815.137 59.2845 814.98 58.8848 814.98 58.4565C814.98 58.0426 815.037 57.6144 815.151 57.1719C815.265 56.7294 815.394 56.3296 815.522 55.9728C815.651 55.6159 815.851 55.1877 816.107 54.6738C816.364 54.1599 816.564 53.7888 816.678 53.5462C816.793 53.3035 817.007 52.9608 817.292 52.4898C817.578 52.0187 817.935 51.3763 818.391 50.577C818.848 49.7776 819.219 49.1781 819.519 48.7927C819.819 48.4072 820.104 48.2074 820.39 48.2074C820.675 48.2074 820.918 48.3216 821.132 48.55C821.346 48.7784 821.46 48.9782 821.46 49.121C821.46 49.2637 821.132 49.9203 820.475 51.091C818.548 54.5882 817.578 56.6151 817.578 57.2004C817.578 57.3431 817.635 57.4145 817.735 57.4145C818.206 57.4145 819.376 56.4011 821.232 54.3741C823.088 52.3471 824.173 51.048 824.472 50.4771C824.772 49.9061 825.043 49.4207 825.329 49.0353C825.6 48.6499 825.814 48.4072 825.957 48.3216C826.371 48.0504 826.913 47.9077 827.584 47.8792C827.698 47.8792 827.77 47.8791 827.827 47.8934C827.884 47.9076 827.955 47.9933 828.027 48.136C828.098 48.2788 828.141 48.4072 828.141 48.5072C828.055 48.7784 827.67 49.5064 826.97 50.6912C826.285 51.876 825.9 52.5469 825.828 52.6896C824.672 55.0735 824.101 56.6294 824.101 57.3431C824.101 57.7571 824.258 57.9569 824.572 57.9569C825.143 57.8855 825.828 57.4288 826.628 56.6008C826.928 56.3011 827.213 55.987 827.499 55.673C827.784 55.3589 827.97 55.1734 828.027 55.1306C828.098 55.0592 828.184 55.0306 828.284 55.0306Z" fill="#292F36"/>
<path d="M832.523 51.6476C834.821 49.0353 836.791 47.7221 838.404 47.7221C838.804 47.7221 839.132 47.8363 839.389 48.0789C839.646 48.3216 839.775 48.6214 839.775 49.0068C839.775 49.3922 839.504 50.0203 838.961 50.9196C838.419 51.8046 837.919 52.5611 837.462 53.175C837.22 53.489 836.948 53.646 836.634 53.646C836.335 53.646 836.092 53.5318 835.921 53.3034C835.749 53.075 835.664 52.8181 835.664 52.5183C835.664 51.8474 836.021 51.0766 836.749 50.2344L836.72 50.2059C836.392 50.2344 835.607 50.8768 834.322 52.1044C833.051 53.3462 831.967 54.4597 831.067 55.4303C830.182 56.4153 829.212 57.6001 828.155 59.0132C827.856 59.4272 827.599 59.6413 827.384 59.6413C827.17 59.6413 826.899 59.5699 826.557 59.4415C826.214 59.313 826 59.2131 825.928 59.156C825.857 59.0989 825.814 58.999 825.814 58.8562C825.814 58.7277 825.857 58.5565 825.928 58.3852C826 58.1996 826.157 57.9426 826.357 57.6143C826.557 57.286 826.885 56.7436 827.313 56.0013C827.741 55.259 828.398 54.1314 829.297 52.6325C830.197 51.1337 830.725 50.2201 830.91 49.9061C831.281 49.2637 831.581 48.7927 831.824 48.5072C832.266 47.9505 833.009 47.6793 834.051 47.6793C834.279 47.6793 834.408 47.822 834.408 48.1218C834.408 48.5786 833.979 49.4493 833.137 50.7055L832.523 51.6476Z" fill="#292F36"/>
<path d="M848.268 48.6785C848.268 49.3209 848.011 49.8919 847.483 50.3772C846.955 50.8625 846.37 51.1052 845.699 51.1052C845.485 51.1052 845.342 51.0481 845.271 50.9482C845.199 50.8483 845.171 50.7055 845.171 50.5485C845.171 50.3915 845.185 50.2202 845.228 50.0631C844.871 50.1773 844.485 50.3629 844.057 50.6056C843.629 50.8482 843.101 51.2051 842.473 51.6904C841.845 52.1758 841.531 52.5184 841.531 52.761C841.531 52.8324 841.645 52.8752 841.873 52.8752C842.102 52.8752 842.458 52.7896 842.929 52.6326C843.4 52.4755 843.743 52.3899 843.929 52.3899C844.114 52.3899 844.243 52.4042 844.3 52.4184C844.428 52.4898 844.557 52.6326 844.714 52.861C844.856 53.0894 844.928 53.2749 844.928 53.4034C844.928 53.5319 844.799 53.7032 844.543 53.9173C844.286 54.1314 844 54.2884 843.686 54.4026C843.358 54.5168 843.144 54.6025 843.044 54.6595C840.988 55.8158 839.96 56.6009 839.96 57.0291C839.96 57.7857 840.603 58.1711 841.902 58.1711C842.73 58.1711 843.572 57.9141 844.4 57.386C845.113 56.9435 845.756 56.4867 846.327 56.0156C846.898 55.5588 847.255 55.2734 847.412 55.1592C847.569 55.045 847.683 55.0021 847.754 55.0021C848.011 55.0021 848.14 55.2876 848.14 55.8586C848.14 56.4296 848.111 56.8007 848.04 56.972C847.968 57.1576 847.783 57.3717 847.454 57.6429C845.37 59.3416 843.386 60.1981 841.531 60.1981C840.531 60.1981 839.746 60.0553 839.147 59.7841C838.048 59.2845 837.505 58.528 837.505 57.5002C837.505 56.1584 838.433 55.1306 840.303 54.4454C839.932 54.2741 839.689 54.0743 839.589 53.8031C839.475 53.5461 839.432 53.1322 839.432 52.5612C839.432 51.9902 839.703 51.3907 840.232 50.7483C840.76 50.106 841.416 49.5778 842.187 49.1781C843.9 48.2503 845.442 47.7935 846.784 47.7935C847.112 47.7935 847.426 47.8649 847.769 48.0219C848.111 48.1789 848.268 48.393 848.268 48.6785Z" fill="#292F36"/>
<path d="M881.585 38.7434H881.77C881.828 38.7434 881.87 38.7434 881.885 38.7576C881.899 38.7719 881.913 38.7719 881.942 38.7862C881.97 38.7862 881.985 38.8005 882.013 38.829C882.056 38.8718 882.127 38.9147 882.213 38.9575C882.327 39.0431 882.384 39.1431 882.384 39.2573C882.384 39.3715 882.27 39.6141 882.042 39.9853C881.813 40.3564 881.228 41.2557 880.272 42.7117C878.088 46.0519 876.132 49.1638 874.405 52.0187C871.421 56.9862 869.908 59.4843 869.88 59.5128C869.851 59.5414 869.837 59.5699 869.823 59.5985C869.808 59.6556 869.78 59.6841 869.708 59.6841L869.509 59.6413L869.109 59.7412L868.88 59.6984L868.638 59.7412H868.552L867.739 59.8554C867.253 59.8554 867.011 59.6841 867.011 59.3558C867.011 59.2131 867.053 59.0418 867.139 58.8419C867.439 58.1282 868.966 55.5445 871.707 51.0623C869.908 51.1051 868.124 51.1337 866.368 51.1337L863.228 51.1194C862.714 51.9473 862 53.1178 861.101 54.6452C859.16 57.9712 858.132 59.6413 858.003 59.6698C857.875 59.6984 857.775 59.7269 857.689 59.7269C857.604 59.7269 857.532 59.6841 857.475 59.5842C857.404 59.4986 857.361 59.4414 857.332 59.4414C857.304 59.4414 857.261 59.4557 857.175 59.4985C857.104 59.5414 856.99 59.5556 856.833 59.5556L856.49 59.5414L856.362 59.4557C856.347 59.4557 856.333 59.47 856.319 59.4985C856.305 59.5271 856.262 59.5414 856.205 59.5414C855.791 59.5414 855.577 59.3701 855.577 59.0132C855.577 58.7848 855.662 58.4708 855.819 58.0854C855.991 57.7 856.205 57.286 856.476 56.8435C856.747 56.401 857.432 55.3304 858.56 53.6603C859.673 51.9901 860.23 51.1479 860.23 51.1337C860.045 51.1194 859.83 51.1194 859.588 51.1051C859.088 51.1051 858.746 51.0908 858.531 51.048C857.975 50.9481 857.589 50.4913 857.389 49.6777C857.275 49.278 857.232 49.021 857.247 48.8926C857.247 48.6356 857.361 48.4929 857.589 48.4929L857.975 48.5928C858.175 48.6071 858.631 48.6214 859.374 48.6642C860.116 48.707 860.644 48.7213 860.972 48.7213L861.8 48.6927C863.071 46.7086 864.584 44.4532 866.354 41.9409C865.069 42.9972 863.642 43.5253 862.072 43.5253C861.329 43.5253 860.687 43.354 860.159 42.9972C859.616 42.6403 859.359 42.1835 859.359 41.6411C859.359 41.0987 859.559 40.6704 859.973 40.3421C860.387 40.0281 860.773 39.8711 861.144 39.8711C861.515 39.8711 861.7 39.9282 861.7 40.0424C861.7 40.0852 861.643 40.128 861.543 40.1708C861.443 40.2279 861.386 40.2708 861.386 40.3136C861.386 40.4706 861.558 40.6133 861.9 40.7275C862.243 40.8417 862.628 40.9131 863.056 40.9131C863.485 40.9131 863.999 40.7846 864.627 40.542C865.255 40.2993 865.897 39.971 866.568 39.5856C867.51 39.0431 868.252 38.5863 868.795 38.2295C869.109 38.0725 869.394 38.0011 869.68 38.0011C869.965 38.0011 870.151 38.0296 870.279 38.101C870.408 38.1581 870.493 38.2295 870.551 38.2866C870.608 38.3437 870.679 38.4293 870.736 38.5293C870.808 38.6292 870.865 38.7148 870.936 38.7576C870.993 38.8147 871.036 38.8718 871.036 38.9432C871.036 39.0146 870.993 39.1145 870.922 39.2715C870.85 39.4143 870.479 40.0138 869.808 41.0559C869.137 42.0979 868.267 43.4254 867.21 45.0384C866.154 46.6515 865.383 47.8363 864.898 48.6071C867.51 48.6071 870.322 48.5643 873.348 48.4643C877.031 42.6546 878.973 39.6141 879.172 39.3286C879.372 39.0431 879.558 38.8576 879.729 38.7719C879.9 38.6863 880.1 38.6434 880.343 38.6434L881.585 38.7434Z" fill="#292F36"/>
<path d="M886.353 48.4786C886.652 48.4786 886.952 48.6071 887.252 48.8783C887.566 49.1495 887.709 49.5492 887.709 50.0916C887.709 50.634 887.523 51.3335 887.138 52.2042C886.752 53.0607 886.238 53.9457 885.567 54.845C884.911 55.7301 884.169 56.5723 883.383 57.3574C882.584 58.1425 881.728 58.7848 880.814 59.2844C879.886 59.784 879.058 60.041 878.302 60.041C877.545 60.041 876.946 59.7983 876.489 59.3272C876.032 58.8562 875.804 58.1995 875.804 57.3574C875.804 56.5152 876.018 55.573 876.432 54.5595C876.846 53.5318 877.374 52.6325 878.031 51.8474C878.687 51.0623 879.387 50.3628 880.157 49.7347C881.742 48.45 883.141 47.822 884.34 47.822C884.882 47.822 885.282 47.9504 885.553 48.2217C885.653 48.3073 885.696 48.3929 885.696 48.45V48.5357C885.853 48.4786 886.067 48.4786 886.353 48.4786ZM884.882 50.4199H884.782C884.44 50.4199 884.268 50.1773 884.268 49.6777C883.555 49.906 882.813 50.32 882.027 50.9053C881.242 51.4905 880.543 52.19 879.929 52.9893C878.673 54.5881 878.045 55.9442 878.031 57.0433C878.031 57.5857 878.23 57.857 878.63 57.857C879.03 57.857 879.629 57.5857 880.414 57.0719C881.199 56.558 881.985 55.8014 882.77 54.8165C883.541 53.8458 884.126 52.9893 884.511 52.2756C884.897 51.5619 885.096 51.0766 885.096 50.8053C885.082 50.5484 885.011 50.4199 884.882 50.4199Z" fill="#292F36"/>
<path d="M887.395 59.7126L886.681 59.6841H886.424C886.324 59.6555 886.224 59.5984 886.11 59.5128C885.996 59.4271 885.91 59.3558 885.853 59.3272C885.796 59.2987 885.767 59.213 885.767 59.1131C885.767 59.0132 885.81 58.8276 885.882 58.5849C887.78 54.4025 889.621 51.048 891.406 48.5499C891.606 48.2787 891.92 48.0646 892.348 47.9218C892.776 47.7791 893.204 47.7077 893.618 47.7077C893.861 47.7077 893.989 47.8933 893.989 48.2787C893.989 48.3929 893.947 48.5357 893.875 48.707C893.804 48.8925 893.604 49.178 893.29 49.592C892.976 50.0059 892.605 50.477 892.177 50.9909C891.748 51.5048 891.506 51.8188 891.449 51.9044C892.79 50.5198 893.989 49.4921 895.074 48.8069C896.159 48.136 896.93 47.7934 897.415 47.7934C897.901 47.7934 898.272 47.9361 898.529 48.2073C898.786 48.4786 898.914 48.7783 898.914 49.0924C898.914 49.4064 898.886 49.6776 898.843 49.8775C898.8 50.0916 898.714 50.3057 898.6 50.5341C898.486 50.7625 898.386 50.9623 898.3 51.1193C898.215 51.2764 898.072 51.4905 897.886 51.7474C897.687 52.0044 897.558 52.1899 897.487 52.2899C897.415 52.3898 897.258 52.5753 897.03 52.8466C896.802 53.1178 896.673 53.2748 896.659 53.3033C896.93 53.0321 897.315 52.6324 897.801 52.09C898.286 51.5476 898.7 51.1051 899.043 50.7482C899.385 50.3913 899.799 49.9774 900.313 49.5206C900.827 49.0638 901.298 48.6927 901.726 48.4215C902.783 47.7648 903.853 47.4222 904.938 47.4222C905.309 47.4222 905.623 47.5364 905.88 47.7791C906.137 48.0218 906.266 48.293 906.266 48.6213C906.266 48.9496 905.866 49.7347 905.081 50.9623C904.296 52.1899 903.496 53.4318 902.711 54.6737C901.926 55.9156 901.526 56.7007 901.526 57.029C901.526 57.4715 901.612 57.7427 901.769 57.8284C901.94 57.914 902.14 57.9426 902.369 57.9283C902.597 57.914 902.94 57.757 903.354 57.4715C903.782 57.186 904.153 56.9005 904.481 56.5865C905.024 56.1012 905.509 55.6301 905.98 55.1733C906.08 55.0877 906.18 55.0448 906.308 55.0448C906.494 55.0448 906.608 55.1876 906.651 55.4731C906.694 55.7586 906.708 56.0441 906.708 56.3581C906.708 56.6721 906.68 56.872 906.622 56.9862C906.337 57.5286 905.709 58.1995 904.752 58.9989C903.782 59.784 902.854 60.1837 901.969 60.1837C901.855 60.1837 901.783 60.1837 901.741 60.1694C900.741 60.0695 900.042 59.7983 899.656 59.3415C899.271 58.8847 899.085 58.3423 899.085 57.7285C899.085 57.1147 899.3 56.3438 899.728 55.4588C900.156 54.5738 900.613 53.7601 901.127 53.0464C901.641 52.3327 902.097 51.6761 902.526 51.0908C902.954 50.5055 903.168 50.1915 903.168 50.1487C903.168 50.1059 903.125 50.0773 903.054 50.0773C902.754 50.0773 902.083 50.5626 901.027 51.5476C899.242 53.2177 897.701 54.8307 896.402 56.3724C896.059 56.7863 895.246 57.8141 893.975 59.4842C893.832 59.6841 893.59 59.784 893.276 59.784C892.962 59.784 892.633 59.7269 892.291 59.5984C891.948 59.4699 891.777 59.3129 891.777 59.1274C891.777 59.0274 892.548 57.6571 894.104 55.0163C895.66 52.3755 896.43 50.9338 896.43 50.7054C896.43 50.4627 896.288 50.3485 896.002 50.3485C895.717 50.3485 895.117 50.7768 894.218 51.6332C891.748 53.9885 889.836 56.3438 888.48 58.6706C888.394 58.8133 888.223 59.0274 887.966 59.3129C887.709 59.5984 887.48 59.7126 887.395 59.7126Z" fill="#292F36"/>
<path d="M915.701 48.6785C915.701 49.3209 915.444 49.8919 914.916 50.3772C914.388 50.8625 913.802 51.1052 913.132 51.1052C912.917 51.1052 912.775 51.0481 912.703 50.9482C912.632 50.8483 912.603 50.7055 912.603 50.5485C912.603 50.3915 912.618 50.2202 912.66 50.0631C912.304 50.1773 911.918 50.3629 911.49 50.6056C911.062 50.8482 910.534 51.2051 909.906 51.6904C909.277 52.1758 908.963 52.5184 908.963 52.761C908.963 52.8324 909.078 52.8752 909.306 52.8752C909.534 52.8752 909.891 52.7896 910.362 52.6326C910.833 52.4755 911.176 52.3899 911.362 52.3899C911.547 52.3899 911.676 52.4042 911.733 52.4184C911.861 52.4898 911.99 52.6326 912.147 52.861C912.289 53.0894 912.361 53.2749 912.361 53.4034C912.361 53.5319 912.232 53.7032 911.975 53.9173C911.718 54.1314 911.433 54.2884 911.119 54.4026C910.791 54.5168 910.576 54.6025 910.476 54.6595C908.421 55.8158 907.393 56.6009 907.393 57.0291C907.393 57.7857 908.036 58.1711 909.335 58.1711C910.162 58.1711 911.005 57.9141 911.833 57.386C912.546 56.9435 913.189 56.4867 913.76 56.0156C914.331 55.5588 914.687 55.2734 914.845 55.1592C915.002 55.045 915.116 55.0021 915.187 55.0021C915.444 55.0021 915.573 55.2876 915.573 55.8586C915.573 56.4296 915.544 56.8007 915.473 56.972C915.401 57.1576 915.216 57.3717 914.887 57.6429C912.803 59.3416 910.819 60.1981 908.963 60.1981C907.964 60.1981 907.179 60.0553 906.58 59.7841C905.48 59.2845 904.938 58.528 904.938 57.5002C904.938 56.1584 905.866 55.1306 907.736 54.4454C907.365 54.2741 907.122 54.0743 907.022 53.8031C906.908 53.5461 906.865 53.1322 906.865 52.5612C906.865 51.9902 907.136 51.3907 907.664 50.7483C908.193 50.106 908.849 49.5778 909.62 49.1781C911.333 48.2503 912.875 47.7935 914.216 47.7935C914.545 47.7935 914.859 47.8649 915.201 48.0219C915.544 48.1789 915.701 48.393 915.701 48.6785Z" fill="#292F36"/>
<path d="M771 63.6666C774.754 65.2368 778.58 66.4502 782.477 67.378C786.345 68.3487 790.285 69.0339 794.225 69.4621C796.195 69.7333 798.179 69.7619 800.134 69.9474C802.119 69.9617 804.088 70.1187 806.058 70.0045L809.013 69.9332C809.998 69.9189 810.983 69.7904 811.968 69.7333C812.953 69.6477 813.938 69.6048 814.909 69.4764L817.835 69.0624C821.76 68.6342 825.571 67.7206 829.369 66.6215C833.208 65.5651 836.834 64.1662 840.674 62.7102C844.6 61.2685 848.853 60.3264 853.164 60.7832C855.291 61.0544 857.432 61.7396 859.174 62.9957C860.93 64.2376 862.186 66.0077 862.985 67.8633C861.786 66.2075 860.287 64.8514 858.56 64.0092C856.833 63.167 854.934 62.8244 853.05 62.8815C849.239 62.9386 845.485 64.2091 841.959 65.8078C838.376 67.5779 834.493 69.1766 830.582 70.5041C826.642 71.7746 822.574 72.7881 818.449 73.3019C810.241 74.3868 801.833 74.4011 793.725 72.7595C789.657 72.0172 785.689 70.861 781.849 69.3907C778.037 67.8633 774.312 66.079 771 63.6666Z" fill="#292F36"/>
<path d="M907.507 39.8996C904.324 38.5435 901.084 37.4872 897.801 36.6593C894.532 35.7885 891.22 35.1747 887.894 34.7465C886.238 34.4895 884.554 34.4324 882.898 34.2326C881.228 34.1898 879.572 34.0185 877.902 34.0898C877.074 34.1041 876.232 34.1041 875.404 34.0898C874.576 34.0898 873.734 34.1755 872.906 34.204C872.078 34.2611 871.236 34.2754 870.408 34.3611L867.924 34.6608C864.598 34.932 861.372 35.6172 858.146 36.4594C854.877 37.2445 851.78 38.3579 848.482 39.4713C845.099 40.599 841.431 41.2842 837.748 40.7703C835.935 40.4706 834.108 39.8282 832.666 38.6862C831.196 37.5586 830.197 36.0169 829.583 34.4039C830.596 35.8171 831.852 36.9733 833.294 37.687C834.736 38.4008 836.32 38.7005 837.905 38.6862C841.102 38.6862 844.271 37.6585 847.269 36.3738C850.324 34.9178 853.678 33.6331 857.018 32.5767C860.387 31.5632 863.899 30.7924 867.41 30.4213C874.419 29.679 881.585 29.8503 888.451 31.4776C891.891 32.2056 895.246 33.319 898.457 34.6894C901.683 36.0883 904.795 37.7156 907.507 39.8996Z" fill="#292F36"/>
</g>
<g clip-path="url(#clip4_1_108)">
<path d="M1028 57.2057V28H1045.2V57.1914H1028V57.2057ZM1043.12 50.411L1043.56 47.185L1041.96 47.028L1041.48 49.5117C1040.48 50.0113 1039.25 50.254 1037.78 50.254C1035.78 50.254 1034.2 49.6259 1033.04 48.3555C1031.87 47.0851 1031.3 45.4149 1031.3 43.3309C1031.3 41.3039 1031.87 39.6337 1033 38.3205C1034.12 37.0072 1035.61 36.3506 1037.45 36.3506C1038.39 36.3506 1039.19 36.4648 1039.83 36.6789C1040.48 36.893 1041.06 37.1785 1041.62 37.5497L1042.09 40.0049L1043.72 39.8479L1043.25 36.6218C1042.56 36.0366 1041.75 35.5655 1040.8 35.1944C1039.86 34.8375 1038.69 34.6519 1037.31 34.6519C1035.67 34.6519 1034.25 35.0516 1033.07 35.8653C1031.88 36.6789 1030.95 37.7495 1030.3 39.077C1029.64 40.4188 1029.31 41.8606 1029.31 43.4022C1029.31 45.8432 1030.07 47.8844 1031.58 49.5117C1033.1 51.139 1035.07 51.9527 1037.51 51.9527C1039.91 51.9527 1041.78 51.4388 1043.12 50.411Z" fill="#292F36"/>
<path d="M1051.04 57.2057V28H1058.43V57.1914H1051.04V57.2057ZM1051.82 51.6957H1057.66V50.2255H1055.65V33.9239H1051.8V35.3942H1053.84V50.2255H1051.82V51.6957Z" fill="#292F36"/>
<path d="M1064.27 57.2057V28H1077.26V57.1914H1064.27V57.2057ZM1066.63 41.0755L1066.21 43.7305L1067.71 43.9161L1068.15 41.9319C1068.8 41.6179 1069.52 41.4609 1070.38 41.4609C1071.41 41.4609 1072.11 41.7178 1072.47 42.2317C1072.82 42.7456 1072.99 43.4165 1072.99 44.2444V45.2722C1072.68 45.2436 1072.35 45.2151 1071.99 45.2008C1071.64 45.1865 1071.29 45.1723 1070.95 45.1723C1069.67 45.1723 1068.44 45.4007 1067.3 45.8574C1066.16 46.3142 1065.58 47.2706 1065.58 48.7124C1065.58 49.94 1065.97 50.7822 1066.76 51.2389C1067.54 51.71 1068.31 51.9384 1069.07 51.9384C1070 51.9384 1070.8 51.6957 1071.45 51.2104C1072.11 50.7251 1072.62 50.1826 1072.99 49.5545V49.6116C1073.02 51.1676 1073.72 51.9384 1075.09 51.9384C1075.62 51.9384 1076.12 51.8099 1076.59 51.553L1076.56 50.3682C1076.33 50.4681 1076.08 50.5252 1075.79 50.5252C1075.13 50.5252 1074.81 50.1113 1074.81 49.2833V43.8162C1074.81 41.2468 1073.44 39.9621 1070.7 39.9621C1069.94 39.9621 1069.22 40.0477 1068.55 40.219C1067.87 40.4046 1067.23 40.6901 1066.63 41.0755ZM1072.98 47.3848C1072.91 48.3269 1072.52 49.0835 1071.82 49.6259C1071.12 50.1826 1070.38 50.4538 1069.58 50.4538C1069.08 50.4538 1068.6 50.3111 1068.14 50.0399C1067.67 49.7687 1067.44 49.2548 1067.44 48.5125C1067.44 47.6132 1067.8 47.0422 1068.48 46.771C1069.18 46.4998 1069.95 46.3713 1070.82 46.3713C1071.21 46.3713 1071.58 46.3856 1071.94 46.4284C1072.29 46.457 1072.65 46.4855 1072.96 46.4998V47.3848H1072.98Z" fill="#292F36"/>
<path d="M1083.11 57.2057V28H1094.92V57.1914H1083.11V57.2057ZM1093.68 48.3698C1093.68 47.4562 1093.43 46.7853 1092.95 46.3428C1092.46 45.9003 1091.88 45.6005 1091.16 45.4292C1090.45 45.2579 1089.75 45.1152 1089.05 45.001C1088.35 44.8868 1087.75 44.7012 1087.27 44.4585C1086.78 44.2159 1086.54 43.7876 1086.54 43.1738C1086.54 42.5886 1086.77 42.1603 1087.24 41.8749C1087.71 41.5894 1088.3 41.4609 1089.02 41.4609C1089.87 41.4609 1090.65 41.6465 1091.38 42.0319L1091.66 43.8876L1093.16 43.702L1092.88 41.0184C1092.39 40.7186 1091.81 40.4759 1091.11 40.2761C1090.41 40.0763 1089.67 39.9621 1088.87 39.9621C1087.81 39.9621 1086.84 40.219 1085.94 40.7186C1085.04 41.2182 1084.6 42.0747 1084.6 43.3023C1084.6 44.2016 1084.84 44.8582 1085.33 45.2722C1085.81 45.7004 1086.41 45.9859 1087.14 46.1572C1087.87 46.3285 1088.58 46.4712 1089.29 46.5997C1090.01 46.7139 1090.61 46.9138 1091.09 47.1707C1091.58 47.4276 1091.82 47.8702 1091.82 48.5125C1091.82 49.1691 1091.51 49.6545 1090.88 49.9685C1090.25 50.2826 1089.54 50.4396 1088.72 50.4396C1087.81 50.4396 1086.95 50.254 1086.17 49.8686L1086.24 48.3412L1084.8 48.1842L1084.44 50.7964C1084.94 51.1247 1085.6 51.396 1086.4 51.6101C1087.2 51.8242 1088 51.9384 1088.81 51.9384C1090.19 51.9384 1091.35 51.6244 1092.28 50.982C1093.21 50.3682 1093.68 49.4832 1093.68 48.3698Z" fill="#292F36"/>
<path d="M1100.76 57.2057V28H1112.56V57.1914H1100.76V57.2057ZM1111.32 48.3698C1111.32 47.4562 1111.08 46.7853 1110.59 46.3428C1110.11 45.9003 1109.52 45.6005 1108.81 45.4292C1108.09 45.2579 1107.39 45.1152 1106.7 45.001C1106 44.8868 1105.4 44.7012 1104.91 44.4585C1104.43 44.2159 1104.18 43.7876 1104.18 43.1738C1104.18 42.5886 1104.41 42.1603 1104.88 41.8749C1105.35 41.5894 1105.94 41.4609 1106.67 41.4609C1107.51 41.4609 1108.29 41.6465 1109.02 42.0319L1109.31 43.8876L1110.81 43.702L1110.52 41.0184C1110.04 40.7186 1109.45 40.4759 1108.75 40.2761C1108.05 40.0763 1107.31 39.9621 1106.51 39.9621C1105.45 39.9621 1104.48 40.219 1103.58 40.7186C1102.68 41.2182 1102.24 42.0747 1102.24 43.3023C1102.24 44.2016 1102.48 44.8582 1102.97 45.2722C1103.46 45.7004 1104.05 45.9859 1104.78 46.1572C1105.51 46.3285 1106.22 46.4712 1106.94 46.5997C1107.65 46.7139 1108.25 46.9138 1108.74 47.1707C1109.22 47.4276 1109.46 47.8702 1109.46 48.5125C1109.46 49.1691 1109.15 49.6545 1108.52 49.9685C1107.89 50.2826 1107.18 50.4396 1106.37 50.4396C1105.45 50.4396 1104.6 50.254 1103.81 49.8686L1103.88 48.3412L1102.44 48.1842L1102.08 50.7964C1102.58 51.1247 1103.24 51.396 1104.04 51.6101C1104.84 51.8242 1105.64 51.9384 1106.45 51.9384C1107.84 51.9384 1108.99 51.6244 1109.92 50.982C1110.85 50.3682 1111.32 49.4832 1111.32 48.3698Z" fill="#292F36"/>
<path d="M1118.4 57.2057V28H1126.18V57.1914H1118.4V57.2057ZM1119.54 51.6957H1125.38V50.2255H1123.37V40.2047H1119.5V41.675H1121.57V50.2255H1119.56V51.6957H1119.54ZM1121.37 34.8803V37.2356H1123.34V34.8803H1121.37Z" fill="#292F36"/>
<path d="M1132.02 57.2057V28H1144.45V57.1914H1132.02V57.2057ZM1143.34 47.8273L1141.78 47.4847C1141.44 49.4261 1140.4 50.3967 1138.68 50.3967C1137.54 50.3967 1136.67 50.0113 1136.07 49.2405C1135.47 48.4697 1135.17 47.3848 1135.17 46.0145C1135.17 44.7726 1135.44 43.7163 1135.97 42.8312C1136.5 41.9462 1137.39 41.518 1138.61 41.518C1139.56 41.518 1140.38 41.7321 1141.07 42.1603L1141.51 44.1017L1143.01 43.9161L1142.57 41.1468C1141.98 40.7043 1141.37 40.3903 1140.73 40.219C1140.08 40.0477 1139.38 39.9621 1138.63 39.9621C1136.84 39.9621 1135.49 40.5901 1134.6 41.8463C1133.7 43.1025 1133.26 44.5299 1133.26 46.1144C1133.26 47.9558 1133.73 49.3975 1134.69 50.411C1135.63 51.4388 1136.9 51.9527 1138.48 51.9527C1140.07 51.9527 1141.24 51.5102 1141.98 50.6394C1142.72 49.7544 1143.18 48.8265 1143.34 47.8273Z" fill="#292F36"/>
<path d="M1035.44 73.1503C1035.11 73.7498 1034.62 74.2209 1034 74.5492C1033.35 74.8775 1032.6 75.0488 1031.71 75.0488H1029.16V66.998H1031.71C1032.6 66.998 1033.37 67.155 1034 67.4833C1034.62 67.8116 1035.11 68.2684 1035.44 68.8822C1035.77 69.496 1035.92 70.1955 1035.92 71.0234C1035.92 71.8371 1035.77 72.5508 1035.44 73.1503ZM1034.02 73.3073C1034.58 72.7649 1034.85 72.0083 1034.85 71.0234C1034.85 70.0385 1034.58 69.2819 1034.02 68.7395C1033.47 68.197 1032.67 67.9258 1031.61 67.9258H1030.17V74.121H1031.61C1032.67 74.121 1033.47 73.8498 1034.02 73.3073Z" fill="#292F36"/>
<path d="M1041.22 67.8402V70.5952H1044.27V71.3945H1041.22V74.2066H1044.62V75.0488H1040.18V66.998H1044.62V67.8402H1041.22Z" fill="#292F36"/>
<path d="M1053.64 74.0211C1053.45 74.3494 1053.18 74.6207 1052.81 74.8205C1052.44 75.0204 1051.98 75.1346 1051.42 75.1346C1050.9 75.1346 1050.41 75.0346 1050 74.8491C1049.58 74.6492 1049.25 74.3923 1049 74.0497C1048.76 73.7071 1048.61 73.3217 1048.57 72.8934H1049.68C1049.71 73.1218 1049.78 73.3502 1049.91 73.5643C1050.04 73.7785 1050.24 73.964 1050.48 74.1068C1050.73 74.2495 1051.02 74.3209 1051.38 74.3209C1051.84 74.3209 1052.2 74.2067 1052.44 73.9498C1052.68 73.6928 1052.81 73.3931 1052.81 73.0076C1052.81 72.6793 1052.72 72.4081 1052.55 72.2083C1052.38 72.0084 1052.17 71.8371 1051.92 71.7229C1051.68 71.6087 1051.32 71.4803 1050.9 71.3375C1050.38 71.1662 1049.98 71.0092 1049.67 70.8665C1049.35 70.7237 1049.1 70.4953 1048.88 70.1956C1048.67 69.8958 1048.56 69.5104 1048.56 69.025C1048.56 68.6111 1048.66 68.2399 1048.86 67.9116C1049.05 67.5976 1049.34 67.3407 1049.73 67.1694C1050.1 66.9981 1050.55 66.9124 1051.05 66.9124C1051.84 66.9124 1052.48 67.098 1052.94 67.4834C1053.41 67.8688 1053.67 68.3541 1053.75 68.9537H1052.64C1052.58 68.6396 1052.41 68.3541 1052.15 68.1115C1051.88 67.8688 1051.52 67.7403 1051.07 67.7403C1050.65 67.7403 1050.31 67.8545 1050.07 68.0687C1049.81 68.2828 1049.7 68.5968 1049.7 68.9822C1049.7 69.2963 1049.78 69.5532 1049.94 69.7388C1050.11 69.9386 1050.31 70.0814 1050.55 70.1956C1050.8 70.3098 1051.14 70.424 1051.55 70.5667C1052.07 70.738 1052.48 70.895 1052.81 71.052C1053.12 71.2091 1053.39 71.4374 1053.61 71.7372C1053.82 72.037 1053.94 72.4509 1053.94 72.9648C1053.91 73.336 1053.82 73.6928 1053.64 74.0211Z" fill="#292F36"/>
<path d="M1059.2 66.998V75.0488H1058.16V66.998H1059.2Z" fill="#292F36"/>
<path d="M1069.74 67.6119C1070.38 68.083 1070.81 68.711 1071.02 69.5104H1069.92C1069.74 69.0251 1069.41 68.6254 1068.97 68.3399C1068.53 68.0401 1068 67.8974 1067.38 67.8974C1066.84 67.8974 1066.34 68.0259 1065.91 68.2828C1065.48 68.5397 1065.14 68.8966 1064.89 69.3677C1064.64 69.8387 1064.51 70.3954 1064.51 71.0378C1064.51 71.6944 1064.64 72.2654 1064.89 72.7365C1065.13 73.2075 1065.48 73.5787 1065.93 73.8356C1066.37 74.0925 1066.88 74.221 1067.47 74.221C1067.97 74.221 1068.41 74.1068 1068.83 73.907C1069.24 73.6928 1069.57 73.3788 1069.84 72.9791C1070.11 72.5794 1070.25 72.0941 1070.31 71.5517H1067.14V70.7808H1071.18V71.7372C1071.11 72.3796 1070.91 72.9506 1070.58 73.4787C1070.25 74.0069 1069.81 74.4066 1069.25 74.7063C1068.7 75.0061 1068.07 75.1631 1067.35 75.1631C1066.58 75.1631 1065.9 74.9918 1065.3 74.6492C1064.7 74.3067 1064.24 73.8213 1063.91 73.1932C1063.59 72.5794 1063.42 71.8657 1063.42 71.0663C1063.42 70.267 1063.59 69.5532 1063.91 68.9394C1064.24 68.3256 1064.71 67.826 1065.3 67.4834C1065.88 67.1408 1066.57 66.9553 1067.34 66.9553C1068.31 66.9267 1069.1 67.1551 1069.74 67.6119Z" fill="#292F36"/>
<path d="M1081.72 75.0488H1080.67L1076.49 68.6824V75.0488H1075.45V66.998H1076.49L1080.67 73.3644V66.998H1081.72V75.0488Z" fill="#292F36"/>
<path d="M1096.73 74.0211C1096.55 74.3494 1096.28 74.6207 1095.9 74.8205C1095.53 75.0204 1095.08 75.1346 1094.52 75.1346C1093.99 75.1346 1093.51 75.0346 1093.09 74.8491C1092.68 74.6492 1092.35 74.3923 1092.09 74.0497C1091.85 73.7071 1091.71 73.3217 1091.66 72.8934H1092.78C1092.81 73.1218 1092.88 73.3502 1093.01 73.5643C1093.13 73.7785 1093.33 73.964 1093.58 74.1068C1093.82 74.2495 1094.12 74.3209 1094.48 74.3209C1094.93 74.3209 1095.29 74.2067 1095.53 73.9498C1095.78 73.6928 1095.9 73.3931 1095.9 73.0076C1095.9 72.6793 1095.82 72.4081 1095.65 72.2083C1095.48 72.0084 1095.26 71.8371 1095.02 71.7229C1094.78 71.6087 1094.42 71.4803 1093.99 71.3375C1093.48 71.1662 1093.08 71.0092 1092.76 70.8665C1092.45 70.7237 1092.19 70.4953 1091.98 70.1956C1091.76 69.8958 1091.65 69.5104 1091.65 69.025C1091.65 68.6111 1091.75 68.2399 1091.95 67.9116C1092.15 67.5976 1092.44 67.3407 1092.82 67.1694C1093.19 66.9981 1093.65 66.9124 1094.15 66.9124C1094.93 66.9124 1095.58 67.098 1096.03 67.4834C1096.5 67.8688 1096.76 68.3541 1096.85 68.9537H1095.73C1095.68 68.6396 1095.5 68.3541 1095.25 68.1115C1094.98 67.8688 1094.62 67.7403 1094.16 67.7403C1093.75 67.7403 1093.41 67.8545 1093.16 68.0687C1092.91 68.2828 1092.79 68.5968 1092.79 68.9822C1092.79 69.2963 1092.88 69.5532 1093.03 69.7388C1093.21 69.9386 1093.41 70.0814 1093.65 70.1956C1093.89 70.3098 1094.23 70.424 1094.65 70.5667C1095.16 70.738 1095.58 70.895 1095.9 71.052C1096.22 71.2091 1096.49 71.4374 1096.7 71.7372C1096.92 72.037 1097.03 72.4509 1097.03 72.9648C1097 73.336 1096.92 73.6928 1096.73 74.0211Z" fill="#292F36"/>
<path d="M1106.2 66.998V67.8402H1103.93V75.0488H1102.87V67.8402H1100.6V66.998H1106.2Z" fill="#292F36"/>
<path d="M1111.05 66.998V71.8228C1111.05 72.6079 1111.22 73.1931 1111.58 73.5785C1111.93 73.9497 1112.41 74.1495 1113.03 74.1495C1113.65 74.1495 1114.12 73.964 1114.46 73.5785C1114.8 73.1931 1114.97 72.6222 1114.97 71.8371V67.0123H1116.02V71.8371C1116.02 72.9362 1115.75 73.7641 1115.2 74.3065C1114.66 74.8633 1113.93 75.1345 1113.02 75.1345C1112.12 75.1345 1111.39 74.8633 1110.85 74.3065C1110.31 73.7498 1110.04 72.9362 1110.04 71.8371V67.0123H1111.05V66.998Z" fill="#292F36"/>
<path d="M1126.77 73.1503C1126.44 73.7498 1125.95 74.2209 1125.32 74.5492C1124.68 74.8775 1123.93 75.0488 1123.04 75.0488H1120.48V66.998H1123.04C1123.93 66.998 1124.7 67.155 1125.32 67.4833C1125.95 67.8116 1126.44 68.2684 1126.77 68.8822C1127.09 69.496 1127.25 70.1955 1127.25 71.0234C1127.25 71.8371 1127.09 72.5508 1126.77 73.1503ZM1125.37 73.3073C1125.92 72.7649 1126.19 72.0083 1126.19 71.0234C1126.19 70.0385 1125.92 69.2819 1125.37 68.7395C1124.81 68.197 1124.01 67.9258 1122.95 67.9258H1121.51V74.121H1122.95C1124 74.121 1124.81 73.8498 1125.37 73.3073Z" fill="#292F36"/>
<path d="M1132.56 66.998V75.0488H1131.52V66.998H1132.56Z" fill="#292F36"/>
<path d="M1142.78 67.4263C1143.38 67.7832 1143.85 68.2685 1144.2 68.8966C1144.54 69.5246 1144.71 70.2384 1144.71 71.0235C1144.71 71.8086 1144.54 72.5223 1144.2 73.1504C1143.85 73.7785 1143.38 74.2638 1142.78 74.6207C1142.18 74.9775 1141.51 75.1488 1140.77 75.1488C1140.03 75.1488 1139.34 74.9775 1138.74 74.6207C1138.14 74.2638 1137.66 73.7785 1137.31 73.1504C1136.97 72.5223 1136.8 71.8086 1136.8 71.0235C1136.8 70.2384 1136.97 69.5246 1137.31 68.8966C1137.66 68.2685 1138.13 67.7832 1138.74 67.4263C1139.36 67.0694 1140.03 66.8981 1140.77 66.8981C1141.51 66.8981 1142.18 67.0694 1142.78 67.4263ZM1139.27 68.2542C1138.83 68.5112 1138.49 68.868 1138.24 69.3533C1138 69.8244 1137.87 70.3811 1137.87 71.0235C1137.87 71.6516 1138 72.2083 1138.24 72.6936C1138.49 73.1789 1138.83 73.5358 1139.27 73.7927C1139.71 74.0497 1140.2 74.1781 1140.76 74.1781C1141.3 74.1781 1141.8 74.0497 1142.24 73.7927C1142.68 73.5358 1143.02 73.1647 1143.27 72.6936C1143.51 72.2225 1143.64 71.6658 1143.64 71.0377C1143.64 70.3954 1143.51 69.8387 1143.27 69.3676C1143.02 68.8966 1142.68 68.5254 1142.24 68.2685C1141.8 68.0115 1141.31 67.8831 1140.76 67.8831C1140.21 67.8688 1139.71 67.9973 1139.27 68.2542Z" fill="#292F36"/>
</g>
<defs>
<clipPath id="clip0_1_108">
<rect width="132" height="43" fill="white" transform="translate(48 31)"/>
</clipPath>
<clipPath id="clip1_1_108">
<rect width="103" height="103" fill="white" transform="translate(305 1)"/>
</clipPath>
<clipPath id="clip2_1_108">
<rect width="164" height="43" fill="white" transform="translate(518 31)"/>
</clipPath>
<clipPath id="clip3_1_108">
<rect width="145" height="45" fill="white" transform="translate(771 30)"/>
</clipPath>
<clipPath id="clip4_1_108">
<rect width="117" height="48" fill="white" transform="translate(1028 28)"/>
</clipPath>
</defs>
</svg>
