<svg width="18" height="15" viewBox="0 0 18 15" fill="none" xmlns="http://www.w3.org/2000/svg">
<g clip-path="url(#clip0_1_364)">
<path d="M16.1367 3.76587C16.8398 3.23853 17.4727 2.60571 17.9648 1.86743C17.332 2.14868 16.5938 2.35962 15.8555 2.42993C16.6289 1.9729 17.1914 1.26978 17.4727 0.390869C16.7695 0.812744 15.9609 1.12915 15.1523 1.30493C14.4492 0.56665 13.5 0.144775 12.4453 0.144775C10.4062 0.144775 8.75391 1.79712 8.75391 3.83618C8.75391 4.11743 8.78906 4.39868 8.85938 4.67993C5.80078 4.50415 3.05859 3.02759 1.23047 0.812744C0.914062 1.34009 0.738281 1.9729 0.738281 2.67603C0.738281 3.94165 1.37109 5.06665 2.39062 5.73462C1.79297 5.69946 1.19531 5.55884 0.703125 5.27759V5.31274C0.703125 7.10571 1.96875 8.58228 3.65625 8.93384C3.375 9.00415 3.02344 9.07446 2.70703 9.07446C2.46094 9.07446 2.25 9.03931 2.00391 9.00415C2.46094 10.4807 3.83203 11.5354 5.44922 11.5706C4.18359 12.5549 2.60156 13.1526 0.878906 13.1526C0.5625 13.1526 0.28125 13.1174 0 13.0823C1.61719 14.137 3.55078 14.7346 5.66016 14.7346C12.4453 14.7346 16.1367 9.14478 16.1367 4.25806C16.1367 4.08228 16.1367 3.94165 16.1367 3.76587Z" fill="#292F36"/>
</g>
<defs>
<clipPath id="clip0_1_364">
<rect width="18" height="15" fill="white"/>
</clipPath>
</defs>
</svg>
