<svg width="263" height="71" viewBox="0 0 263 71" fill="none" xmlns="http://www.w3.org/2000/svg">
<path d="M18 1H245C254.389 1 262 8.61116 262 18V53C262 62.3888 254.389 70 245 70H18C8.61117 70 1 62.3888 1 53V18C1 8.61116 8.61116 1 18 1Z" fill="#292F36"/>
<path d="M18 1H245C254.389 1 262 8.61116 262 18V53C262 62.3888 254.389 70 245 70H18C8.61117 70 1 62.3888 1 53V18C1 8.61116 8.61116 1 18 1Z" stroke="#292F36" stroke-width="2"/>
<path d="M212 36L236 35" stroke="#CDA274" stroke-width="2" stroke-linecap="square" stroke-linejoin="round"/>
<path d="M227.217 18L238 35.8206L227 54" stroke="#CDA274" stroke-width="2" stroke-linecap="square" stroke-linejoin="round"/>
</svg>
