<svg width="277" height="107" viewBox="0 0 277 107" fill="none" xmlns="http://www.w3.org/2000/svg">
<g filter="url(#filter0_d_1_349)">
<path d="M17 36C17 26.0589 25.0589 18 35 18H240C249.941 18 258 26.0589 258 36V71C258 80.9411 249.941 89 240 89H35C25.0589 89 17 80.9411 17 71V36Z" fill="#CDA274"/>
<path d="M35 19H240C249.389 19 257 26.6112 257 36V71C257 80.3888 249.389 88 240 88H35C25.6112 88 18 80.3888 18 71V36C18 26.6112 25.6112 19 35 19Z" stroke="#CDA274" stroke-width="2"/>
<path d="M218.058 56.386L241.96 53.9998" stroke="#292F36" stroke-width="2" stroke-linecap="square" stroke-linejoin="round"/>
<path d="M232.217 37L243 54.8205L232 73" stroke="#292F36" stroke-width="2" stroke-linecap="square" stroke-linejoin="round"/>
</g>
<defs>
<filter id="filter0_d_1_349" x="0" y="0" width="277" height="107" filterUnits="userSpaceOnUse" color-interpolation-filters="sRGB">
<feFlood flood-opacity="0" result="BackgroundImageFix"/>
<feColorMatrix in="SourceAlpha" type="matrix" values="0 0 0 0 0 0 0 0 0 0 0 0 0 0 0 0 0 0 127 0" result="hardAlpha"/>
<feOffset dx="1"/>
<feGaussianBlur stdDeviation="9"/>
<feColorMatrix type="matrix" values="0 0 0 0 0 0 0 0 0 0 0 0 0 0 0 0 0 0 0.2 0"/>
<feBlend mode="normal" in2="BackgroundImageFix" result="effect1_dropShadow_1_349"/>
<feBlend mode="normal" in="SourceGraphic" in2="effect1_dropShadow_1_349" result="shape"/>
</filter>
</defs>
</svg>
